<svg xmlns="http://www.w3.org/2000/svg" width="107.692" height="107.692" viewBox="0 0 107.692 107.692"><defs><style>.a,.d{fill:rgba(0,0,0,0.71);}.a,.b{opacity:0.848;}.a,.c,.d{isolation:isolate;}.d{font-size:14px;font-family:STIXGeneral-Bold, STIXGeneral;font-weight:700;}</style></defs><g transform="translate(0)"><path class="a" d="M-38.547,1015.939a53.893,53.893,0,0,1,73.617,19.779,53.926,53.926,0,0,1-3.683,59.419,53.892,53.892,0,0,1-75.532,10.273A53.923,53.923,0,0,1-54.6,1030.1,53.548,53.548,0,0,1-38.547,1015.939Zm52.021,90.126A50.187,50.187,0,0,0,31.8,1037.507a50.164,50.164,0,0,0-49.6-24.686,50.178,50.178,0,0,0-43.463,56.091,50.17,50.17,0,0,0,55.864,43.5A49.827,49.827,0,0,0,13.474,1106.064Z" transform="translate(65.418 -1008.723)"/><path class="a" d="M-35.908,1020.313a49.166,49.166,0,0,1,67.159,18.048,49.2,49.2,0,0,1-3.36,54.205,49.163,49.163,0,0,1-68.879,9.563,49.194,49.194,0,0,1-9.56-68.9A48.846,48.846,0,0,1-35.908,1020.313Zm48.7,84.37a48.27,48.27,0,0,0,17.618-65.938,48.244,48.244,0,0,0-47.7-23.739,48.259,48.259,0,0,0-41.916,53.857,48.253,48.253,0,0,0,53.842,41.929A47.924,47.924,0,0,0,12.79,1104.683Z" transform="translate(65.142 -1009.004)"/><g class="b" transform="translate(10.741 10.755)"><g class="b"><path class="a" d="M-51.777,1069.8l4.105,1.867-.008-.118c-.069-1.025-.618-1.5-1.811-1.749l-.008-.127,1.855.019.254,3.778-.135.008-4.131-1.895.007.1c.081,1.224.39,1.512,1.7,1.793l.008.116-1.737,0-.256-3.782Z" transform="translate(53.922 -1022.893)"/><path class="a" d="M-51.239,1066.515l.713.045c1.657.107,2.759-.3,2.822-1.283.046-.73-.672-1.363-1.811-1.944l.015-.163,2,.195-.007.1c-.121.055-.186.088-.194.23a9.618,9.618,0,0,1,.164,1.81c-.125,1.91-1.211,3.012-3.361,2.876-2.179-.14-3.251-1.476-3.132-3.322a8.832,8.832,0,0,1,.389-1.665c.009-.145-.054-.188-.164-.255l.007-.1,1.958.055-.014.163c-1.139.423-1.94.915-1.988,1.693C-53.9,1065.855-53.1,1066.395-51.239,1066.515Z" transform="translate(54.039 -1022.522)"/><path class="a" d="M-53.634,1059.271l6.5,1.154.089-.5.159.028-.471,2.638-.157-.03.089-.487-6.339-1.127-.093.524-.159-.028Z" transform="translate(54.038 -1022.311)"/><path class="a" d="M-50.3,1056.121a1.935,1.935,0,0,1,2.13-1.719,1.932,1.932,0,0,1,.56.147,2.017,2.017,0,0,1,1.761,2.246,2.031,2.031,0,0,1-.158.575,2.021,2.021,0,0,1-2.274,1.729,2.052,2.052,0,0,1-.473-.125,2.083,2.083,0,0,1-1.674-2.424A2.123,2.123,0,0,1-50.3,1056.121Zm1.908.007c-.939-.261-1.625-.422-1.759.064-.147.531.524.745,1.506,1.016l.677.188c1.008.28,1.664.444,1.811-.086.138-.5-.365-.661-1.5-.977Z" transform="translate(53.839 -1022.037)"/><path class="a" d="M-46.425,1051.76l-.643-.263c-1.06-.434-1.373-.455-1.509-.121a.377.377,0,0,0,.142.515l.032.016a.759.759,0,0,0,.263.05l.085-.209a1,1,0,0,1,.4.087.722.722,0,0,1,.369.954c-.007.015-.013.029-.021.043a.679.679,0,0,1-.82.5.683.683,0,0,1-.164-.064c-.7-.286-.778-1.029-.312-2.164.536-1.311,1.082-1.606,2.295-1.107l1.694.694c.343.14.48.075.533-.064s-.04-.358-.724-.686l.06-.121c.985.45,1.142.877.849,1.594-.278.676-.641.967-1.089.9a.918.918,0,0,1,.224,1.212c-.239.583-.681,1.163-1.515.822s-.739-1.151-.25-2.344Zm.909.372-.775-.315-.024.058c-.143.349.039.62.548.827l.134.056c.6.246.708.223.773.063s-.121-.47-.655-.688Z" transform="translate(53.751 -1021.778)"/><path class="a" d="M-42.306,1047.385l.2-.363-2.322-.149-.044.172,1.778,1.015.206-.36.141.08-1.282,2.248-.143-.083.245-.43-5.595-3.189-.263.462-.141-.081,1.1-1.92,3.8,2.166.023-.15-.461-2.6-.417.736-.142-.08.881-1.545.142.081-.313.548.266,1.387,3.425.16.163-.284.141.08-1.245,2.181Z" transform="translate(53.786 -1021.417)"/><path class="a" d="M-42.89,1037.5c1.09-1.3,2.025-1.823,3.109-.917,1.177.987.719,2.15-.4,3.489l-.047.056,1.856,1.552.723-.865.132.109-2.228,2.664-.132-.109.378-.449-4.585-3.834-.377.449-.131-.11Zm2.531,2.519.121-.144c.487-.583.212-1.071-.59-1.743l-.331-.277c-.783-.655-1.2-.722-1.64-.2l-.154.186Z" transform="translate(53.51 -1021.014)"/><path class="a" d="M-36.043,1035.894l1.647,1.774.469-.435.11.118-2.056,1.915-.114-.116.364-.338-2.7-2.909-.363.339-.111-.12,1.592-1.48.585.636a1.211,1.211,0,0,1,.238-1.525.874.874,0,0,1,1.235-.077.854.854,0,0,1,.123.132.755.755,0,0,1,.1,1.063.764.764,0,0,1-.076.081c-.442.411-.912.329-1.21-.268l.239-.22c-.119-.395-.314-.338-.448-.211C-36.742,1034.549-36.6,1035.3-36.043,1035.894Z" transform="translate(53.186 -1020.864)"/><path class="a" d="M-33.413,1031.406l2.53,3.264.4-.31.1.128-2.116,1.64-.1-.128.391-.3-2.43-3.135-.419.328-.1-.13Zm-2.048-1.319a.78.78,0,0,1,1.1-.026.906.906,0,0,1,.112.134.8.8,0,0,1-.059,1.125.8.8,0,0,1-.143.1.785.785,0,0,1-1.11.027.8.8,0,0,1-.115-.138.8.8,0,0,1,.073-1.128A.8.8,0,0,1-35.461,1030.088Z" transform="translate(53.022 -1020.662)"/><path class="a" d="M-30.594,1029.437l.425.713a1.2,1.2,0,0,1,.619-1.447,1.168,1.168,0,0,1,1.6.185,1.324,1.324,0,0,1,.634-1.517c.673-.4,1.352-.325,1.911.612l1.4,2.333.433-.26.081.141-2.138,1.28-.082-.141.268-.161-1.506-2.517c-.394-.658-.526-.684-.664-.6-.279.163-.315.756.073,1.4l1.308,2.187.279-.166.081.141-1.99,1.185-.081-.141.27-.162-1.507-2.516c-.4-.661-.526-.684-.666-.6-.286.173-.275.828.1,1.454l1.279,2.138.279-.166.081.141-2.144,1.281-.081-.141.426-.256-2.041-3.406-.429.256-.078-.136Z" transform="translate(52.83 -1020.51)"/><path class="a" d="M-21.521,1027.412l-.252-.649c-.414-1.068-.615-1.308-.951-1.178a.376.376,0,0,0-.271.46l.008.028a.776.776,0,0,0,.144.224l.211-.08a1.035,1.035,0,0,1,.213.35.726.726,0,0,1-.434.928l-.051.016a.679.679,0,0,1-.927-.249.654.654,0,0,1-.068-.166c-.274-.706.211-1.272,1.355-1.717,1.322-.513,1.907-.313,2.384.9l.665,1.706c.135.346.271.4.415.343s.232-.275,0-1l.129-.041c.345,1.028.143,1.434-.579,1.714-.682.266-1.142.2-1.407-.169a.918.918,0,0,1-.726,1c-.584.226-1.309.3-1.634-.536s.324-1.326,1.528-1.794Zm.357.917-.3-.784-.059.024c-.357.139-.425.455-.224.968l.051.135c.24.6.327.666.486.6S-20.958,1028.864-21.164,1028.328Z" transform="translate(52.355 -1020.397)"/><path class="a" d="M-16.827,1025.4l.607,2.341.62-.161.041.158-2.724.706-.042-.159.481-.124-1-3.844-.48.125-.04-.157,2.105-.546.218.84a1.208,1.208,0,0,1,.927-1.226.873.873,0,0,1,1.12.521.861.861,0,0,1,.044.175.749.749,0,0,1-.4.981.752.752,0,0,1-.118.039c-.585.151-.956-.145-.936-.811l.314-.081c.081-.4-.116-.446-.3-.4C-16.8,1023.886-17.029,1024.617-16.827,1025.4Z" transform="translate(52.097 -1020.296)"/><path class="a" d="M-14.652,1023.088l2.59-.376.024.161-.481.073,1.4,2.826.606-3.119-.6.09-.018-.161,1.259-.182.021.16-.446.063-.975,5.054c-.235,1.212-.649,1.637-1.354,1.738-.669.1-1.164-.176-1.245-.737a.679.679,0,0,1,.511-.815.688.688,0,0,1,.1-.015c.455-.066.77.09.832.509a1.3,1.3,0,0,1-.007.331l-.313.044c-.055.283.032.479.292.441.5-.073.785-.624.986-1.639l.115-.583-.787.117-2.12-3.871-.366.053Z" transform="translate(51.833 -1020.245)"/><path class="a" d="M-4.245,1024.379l-1.785-.06-.755,1.927.677.023-.009.173-1.376-.046.009-.173.423.013,2.492-6.119.74.025,2.075,6.266.415.012-.009.173-2.944-.1.008-.174.64.02Zm-1.7-.252,1.635.049-.712-2.384Z" transform="translate(51.432 -1020.117)"/><path class="a" d="M.821,1024.72l-.073.464c-.177,1.14-.053,1.68.644,1.79A1.337,1.337,0,0,0,2.833,1026l.158.042a1.7,1.7,0,0,1-2.1,1.165l-.026-.007a1.965,1.965,0,0,1-1.873-2.052,1.913,1.913,0,0,1,.071-.439,2.134,2.134,0,0,1,2.281-1.976,2.111,2.111,0,0,1,.453.083c1.088.17,1.559.717,1.456,1.387a.733.733,0,0,1-.732.734.776.776,0,0,1-.14-.013.713.713,0,0,1-.678-.865,1.221,1.221,0,0,1,.094-.314l.295.048a.958.958,0,0,0,.113-.311.393.393,0,0,0-.275-.481.389.389,0,0,0-.088-.013C1.323,1022.909,1.029,1023.393.821,1024.72Z" transform="translate(51.069 -1020.263)"/><path class="a" d="M5.436,1025.661l-.122.453c-.3,1.115-.228,1.664.45,1.847a1.337,1.337,0,0,0,1.532-.815l.152.061a1.7,1.7,0,0,1-2.216.931l-.017-.007a1.96,1.96,0,0,1-1.529-2.668,2.132,2.132,0,0,1,2.476-1.72,2.182,2.182,0,0,1,.441.13c1.062.284,1.473.878,1.3,1.53a.731.731,0,0,1-.8.655.7.7,0,0,1-.14-.028.711.711,0,0,1-.613-.8.7.7,0,0,1,.03-.131,1.234,1.234,0,0,1,.126-.3l.288.078a.986.986,0,0,0,.143-.3.389.389,0,0,0-.216-.506.353.353,0,0,0-.09-.024C6.125,1023.914,5.781,1024.362,5.436,1025.661Z" transform="translate(50.813 -1020.318)"/><path class="a" d="M11.178,1025.384a1.728,1.728,0,0,1,1.093,2.628l-2.373-.919-.127.327c-.381,1-.466,1.738.35,2.053a1.351,1.351,0,0,0,1.633-.57l.143.084a1.736,1.736,0,0,1-2.322.574,2.066,2.066,0,0,1-1.52-2.5,2.126,2.126,0,0,1,.152-.42,2.114,2.114,0,0,1,2.647-1.392A2.169,2.169,0,0,1,11.178,1025.384Zm-.34,1.881.16-.412c.342-.884.388-1.205.044-1.334-.3-.122-.567.107-.91.995l-.157.418Z" transform="translate(50.564 -1020.399)"/><path class="a" d="M12.621,1029.08l.1.052c-.2,1.133.143,1.661.8,2,.6.3.932.2,1.087-.1.184-.363-.169-.643-.695-1.125-.552-.506-1.141-1.12-.686-2.012a1.467,1.467,0,0,1,1.944-.725,1.423,1.423,0,0,1,.164.088,2.09,2.09,0,0,1,.717.6.549.549,0,0,0,.194.178c.12.06.21.026.415-.124l.088.046-.625,1.233-.1-.052a1.492,1.492,0,0,0-.736-1.693c-.531-.271-.859-.165-.987.086-.189.369.249.7.705,1.119.548.493,1.125,1.111.643,2.058a1.477,1.477,0,0,1-1.946.755,1.423,1.423,0,0,1-.258-.146,2.233,2.233,0,0,1-.846-.724.444.444,0,0,0-.119-.142c-.106-.055-.255-.039-.5.12l-.1-.05Z" transform="translate(50.346 -1020.505)"/><path class="a" d="M16.307,1031.013l.091.057c-.311,1.107-.017,1.669.607,2.068.563.36.908.291,1.091,0,.217-.345-.106-.656-.585-1.189-.5-.553-1.021-1.217-.483-2.064a1.466,1.466,0,0,1,2-.535,1.531,1.531,0,0,1,.155.1,2.1,2.1,0,0,1,.658.665.518.518,0,0,0,.174.2c.113.073.207.047.427-.08l.083.054-.745,1.164-.091-.062a1.492,1.492,0,0,0-.569-1.753c-.5-.32-.839-.245-.987-.011-.224.347.18.725.595,1.183.5.543,1.015,1.215.442,2.112a1.475,1.475,0,0,1-2.007.568,1.521,1.521,0,0,1-.248-.175,2.236,2.236,0,0,1-.773-.8.424.424,0,0,0-.108-.156c-.1-.062-.253-.061-.5.073l-.093-.056Z" transform="translate(50.147 -1020.623)"/></g></g><g class="b" transform="translate(26.214 46.334)"><g class="b" transform="translate(0 0)"><path class="a" d="M36.121,1063.007l-4.109-1.868.008.116c.07,1.027.616,1.5,1.811,1.75l.008.127-1.859-.024-.254-3.778.138-.011,4.136,1.9-.01-.1c-.082-1.224-.392-1.511-1.691-1.8l-.009-.118h1.738l.254,3.778Z" transform="translate(32.41 -1059.209)"/><path class="a" d="M35.465,1066.2l-.713-.044c-1.658-.107-2.759.3-2.823,1.282-.048.73.671,1.363,1.81,1.944l-.014.164-2-.2.007-.1c.122-.057.187-.088.194-.229a9.643,9.643,0,0,1-.163-1.812c.123-1.913,1.208-3.016,3.361-2.876,2.18.14,3.25,1.476,3.131,3.322a8.858,8.858,0,0,1-.388,1.666c-.009.144.054.187.164.255l-.007.1-1.958-.055.014-.164c1.138-.424,1.94-.914,1.988-1.693C38.124,1066.862,37.327,1066.321,35.465,1066.2Z" transform="translate(32.411 -1059.495)"/><path class="a" d="M37.823,1073.567l-6.5-1.155-.089.5-.159-.028.467-2.635.16.029-.089.486,6.339,1.126.093-.523.16.028Z" transform="translate(32.447 -1059.827)"/><path class="a" d="M34.641,1076.63a1.936,1.936,0,0,1-2.688,1.574,2.3,2.3,0,1,1,1.14-4.425,2.083,2.083,0,0,1,1.676,2.421A2.12,2.12,0,0,1,34.641,1076.63Zm-1.907,0c.938.26,1.624.422,1.758-.065.147-.53-.523-.744-1.5-1.016l-.678-.188c-1.006-.279-1.664-.443-1.81.089-.139.495.366.66,1.5.975Z" transform="translate(32.497 -1060.017)"/><path class="a" d="M30.732,1081l.641.263c1.06.433,1.374.455,1.51.12a.376.376,0,0,0-.143-.513l-.029-.015a.8.8,0,0,0-.262-.049l-.085.209a1.04,1.04,0,0,1-.4-.088.722.722,0,0,1-.371-.952c.007-.016.014-.031.022-.046a.676.676,0,0,1,.986-.434c.7.286.777,1.029.312,2.164-.536,1.311-1.082,1.606-2.3,1.107l-1.7-.693c-.342-.14-.48-.076-.532.064s.039.356.722.686l-.059.123c-.979-.454-1.138-.879-.844-1.594.276-.678.641-.968,1.089-.9a.917.917,0,0,1-.226-1.213c.239-.584.68-1.166,1.515-.824s.738,1.15.249,2.345Zm-.907-.374.775.315.025-.059c.143-.349-.039-.619-.548-.828l-.133-.055c-.6-.246-.708-.223-.773-.063S29.288,1080.406,29.825,1080.623Z" transform="translate(32.615 -1060.279)"/><path class="a" d="M26.408,1085.25l-.207.362,2.324.149.045-.17-1.778-1.014-.206.36-.141-.08,1.282-2.249.141.08-.245.431,5.592,3.187.263-.462.142.08-1.093,1.923-3.8-2.167-.023.15.455,2.6.422-.734.142.08-.881,1.544-.142-.08.313-.549-.26-1.383-3.43-.161-.163.284-.139-.082,1.242-2.178Z" transform="translate(32.786 -1060.52)"/><path class="a" d="M27.083,1095.091c-1.09,1.3-2.026,1.824-3.109.917-1.176-.986-.723-2.147.4-3.488l.047-.056-1.856-1.553-.723.866-.132-.111L23.942,1089l.135.109-.379.451,4.582,3.835.376-.451.132.113Zm-2.533-2.518-.122.144c-.487.583-.212,1.071.589,1.743l.334.277c.781.654,1.2.724,1.638.194l.156-.187Z" transform="translate(32.972 -1060.878)"/><path class="a" d="M20.359,1096.794l-1.644-1.771-.47.437-.109-.119,2.056-1.915.11.12-.359.335,2.7,2.908.363-.338.11.119-1.592,1.481-.59-.634a1.21,1.21,0,0,1-.235,1.521.875.875,0,0,1-1.234.079.922.922,0,0,1-.124-.134.755.755,0,0,1-.106-1.063.644.644,0,0,1,.077-.081c.442-.411.911-.331,1.209.267l-.238.222c.118.393.313.334.447.209C21.059,1098.14,20.913,1097.388,20.359,1096.794Z" transform="translate(33.172 -1061.126)"/><path class="a" d="M17.7,1101.254l-2.53-3.263-.4.31-.1-.129,2.116-1.641.1.13-.392.3,2.427,3.13.42-.326.1.128Zm2.05,1.323a.778.778,0,0,1-1.1.026.739.739,0,0,1-.115-.139.795.795,0,0,1,.2-1.225.785.785,0,0,1,1.11-.035.747.747,0,0,1,.12.142.8.8,0,0,1-.074,1.129.828.828,0,0,1-.139.1Z" transform="translate(33.366 -1061.3)"/><path class="a" d="M14.672,1103.179l-.426-.713a1.2,1.2,0,0,1-.621,1.442,1.169,1.169,0,0,1-1.593-.179,1.322,1.322,0,0,1-.639,1.517c-.669.4-1.35.326-1.91-.613L8.088,1102.3l-.438.261-.08-.14,2.146-1.284.082.141-.273.158,1.506,2.518c.395.659.526.686.664.6.278-.166.315-.758-.074-1.408l-1.3-2.178-.279.167-.081-.141,1.986-1.189.082.142-.267.16,1.507,2.518c.393.659.526.685.663.6.287-.171.275-.827-.1-1.454l-1.277-2.133-.28.166-.081-.142,2.145-1.282.081.141-.424.253,2.038,3.408.427-.256.082.141Z" transform="translate(33.764 -1061.403)"/><path class="a" d="M5.825,1105.334l.251.648c.414,1.069.616,1.309.952,1.179a.378.378,0,0,0,.272-.46l-.009-.029a.768.768,0,0,0-.144-.224l-.211.081a1.053,1.053,0,0,1-.208-.353.724.724,0,0,1,.433-.927l.053-.017a.68.68,0,0,1,.927.252.7.7,0,0,1,.067.165c.275.707-.212,1.271-1.355,1.718-1.323.51-1.916.313-2.39-.9l-.663-1.708c-.134-.344-.271-.4-.414-.343s-.233.275,0,1l-.128.041c-.349-1.025-.15-1.434.574-1.71.682-.266,1.141-.2,1.406.169a.919.919,0,0,1,.724-.995c.587-.23,1.313-.307,1.639.533s-.324,1.327-1.528,1.793Zm-.355-.917.3.784.059-.023c.356-.138.423-.454.224-.968L6,1104.076c-.237-.608-.33-.67-.487-.607S5.26,1103.879,5.47,1104.417Z" transform="translate(34.015 -1061.649)"/><path class="a" d="M1.171,1107.326l-.6-2.342-.62.161-.041-.159,2.727-.7.039.154-.48.125.995,3.845.48-.125.04.158-2.105.545-.217-.837a1.212,1.212,0,0,1-.927,1.226.875.875,0,0,1-1.121-.523.919.919,0,0,1-.044-.174.75.75,0,0,1,.4-.981.722.722,0,0,1,.111-.036c.584-.152.955.145.937.811l-.315.08c-.082.4.115.447.3.4C1.146,1108.843,1.376,1108.112,1.171,1107.326Z" transform="translate(34.231 -1061.734)"/><path class="a" d="M-1.022,1109.526l-2.589.377-.025-.161.483-.069-1.4-2.827-.606,3.118.6-.089.024.161-1.266.18-.024-.16.447-.065.976-5.052c.234-1.212.647-1.637,1.353-1.739.671-.1,1.166.177,1.248.74a.68.68,0,0,1-.514.814.753.753,0,0,1-.093.014c-.455.067-.77-.09-.832-.51a1.249,1.249,0,0,1,.007-.33l.312-.046c.055-.283-.032-.479-.292-.442-.5.073-.785.624-.985,1.64l-.117.582.787-.113,2.117,3.876.366-.055Z" transform="translate(34.514 -1061.673)"/><path class="a" d="M-11.508,1108.271l1.786.059.756-1.924-.677-.023.009-.174,1.378.044-.008.175-.422-.018-2.5,6.123-.74-.024L-14,1106.243l-.416-.013.006-.172,2.948.093,0,.169-.643-.019Zm1.7.256-1.63-.05.706,2.382Z" transform="translate(34.995 -1061.834)"/><path class="a" d="M-16.463,1108.043l.072-.463c.179-1.14.055-1.681-.64-1.785a1.335,1.335,0,0,0-1.441.967l-.158-.043a1.7,1.7,0,0,1,2.1-1.161l.021.006a1.968,1.968,0,0,1,1.873,2.056,1.956,1.956,0,0,1-.071.436,2.133,2.133,0,0,1-2.283,1.974,2.158,2.158,0,0,1-.452-.082c-1.087-.169-1.555-.719-1.453-1.387a.734.734,0,0,1,.732-.734.755.755,0,0,1,.14.013.711.711,0,0,1,.692.73.683.683,0,0,1-.016.131,1.142,1.142,0,0,1-.093.315l-.295-.048a.943.943,0,0,0-.113.312.39.39,0,0,0,.271.48.383.383,0,0,0,.092.014C-16.963,1109.857-16.67,1109.372-16.463,1108.043Z" transform="translate(35.247 -1061.802)"/><path class="a" d="M-21.086,1107.1l.121-.452c.3-1.115.229-1.665-.449-1.846a1.335,1.335,0,0,0-1.532.813l-.153-.059a1.7,1.7,0,0,1,2.214-.934l.02.009a1.966,1.966,0,0,1,1.645,2.239,1.954,1.954,0,0,1-.116.427,2.133,2.133,0,0,1-2.474,1.725,2.119,2.119,0,0,1-.444-.13c-1.06-.285-1.471-.881-1.3-1.533a.731.731,0,0,1,.8-.654.687.687,0,0,1,.141.028.712.712,0,0,1,.614.8.688.688,0,0,1-.03.132,1.223,1.223,0,0,1-.127.3l-.288-.077a.988.988,0,0,0-.143.3.389.389,0,0,0,.217.507.413.413,0,0,0,.09.024C-21.776,1108.848-21.431,1108.4-21.086,1107.1Z" transform="translate(35.51 -1061.746)"/><path class="a" d="M-26.839,1107.375a1.727,1.727,0,0,1-1.334-2.045,1.739,1.739,0,0,1,.243-.586l2.373.918.127-.328c.384-.992.467-1.734-.35-2.05a1.347,1.347,0,0,0-1.63.57l-.143-.083a1.735,1.735,0,0,1,2.319-.576,2.065,2.065,0,0,1,1.525,2.492,2.056,2.056,0,0,1-.153.426,2.114,2.114,0,0,1-2.64,1.4A2.192,2.192,0,0,1-26.839,1107.375Zm.344-1.88-.16.412c-.342.883-.388,1.2-.041,1.337.3.114.566-.11.91-1l.16-.412Z" transform="translate(35.768 -1061.661)"/><path class="a" d="M-28.3,1103.683l-.1-.052c.2-1.134-.143-1.662-.8-2-.593-.3-.927-.2-1.085.109-.184.359.168.643.694,1.125.553.506,1.141,1.119.686,2.012a1.467,1.467,0,0,1-1.944.724,1.589,1.589,0,0,1-.166-.09,2.1,2.1,0,0,1-.716-.6.535.535,0,0,0-.2-.177c-.12-.063-.209-.026-.416.12l-.085-.045.625-1.233.1.052a1.491,1.491,0,0,0,.737,1.692c.53.271.855.16.986-.085.188-.37-.249-.7-.705-1.119-.549-.493-1.125-1.112-.643-2.058a1.474,1.474,0,0,1,1.943-.757,1.491,1.491,0,0,1,.261.148,2.243,2.243,0,0,1,.845.726.438.438,0,0,0,.12.143c.1.049.254.038.5-.122l.1.053Z" transform="translate(36.005 -1061.56)"/><path class="a" d="M-32,1101.752l-.091-.057c.311-1.107.017-1.67-.607-2.069-.563-.359-.907-.289-1.09,0-.218.344.1.656.584,1.188.5.556,1.028,1.224.489,2.068a1.465,1.465,0,0,1-2,.536,1.352,1.352,0,0,1-.161-.109,2.078,2.078,0,0,1-.658-.665.53.53,0,0,0-.174-.2c-.115-.074-.206-.045-.426.082l-.084-.055.745-1.165.091.058a1.492,1.492,0,0,0,.569,1.758c.5.32.839.246.987.011.225-.347-.181-.725-.6-1.182-.5-.546-1.01-1.216-.437-2.114a1.475,1.475,0,0,1,2.009-.563,1.5,1.5,0,0,1,.244.172,2.23,2.23,0,0,1,.772.8.422.422,0,0,0,.108.156c.1.063.247.062.5-.073l.091.057Z" transform="translate(36.217 -1061.443)"/></g></g><g class="c" transform="translate(16.241 26.002)"><text class="d" transform="translate(7.5 50.144) rotate(-30)"><tspan x="0" y="0">ATTESTED</tspan></text></g><g class="b" transform="translate(22.811 22.884)"><path class="a" d="M-22.457,1042.092A26.42,26.42,0,0,0-35.6,1066.545l40.889-23.607A26.421,26.421,0,0,0-22.457,1042.092Z" transform="translate(40.264 -1033.942)"/><path class="a" d="M-24.751,1038.3a30.541,30.541,0,0,0-15,30.264l.727-.42a29.716,29.716,0,0,1,26.076-32.959,29.715,29.715,0,0,1,21.181,5.675l.728-.42A30.545,30.545,0,0,0-24.751,1038.3Z" transform="translate(40.507 -1033.699)"/><path class="a" d="M6.073,1092.03a29.769,29.769,0,0,1-32.6-1.89l-.727.42a30.542,30.542,0,0,0,33.71,2.139,30.544,30.544,0,0,0,15-30.263l-.725.418A29.768,29.768,0,0,1,6.073,1092.03Z" transform="translate(39.793 -1035.28)"/><path class="a" d="M-22.79,1041.57a26.939,26.939,0,0,1,28.5,1l.735-.425a27.667,27.667,0,0,0-38.508,6.929,27.668,27.668,0,0,0-4.851,18.1l.736-.425A26.936,26.936,0,0,1-22.79,1041.57Z" transform="translate(40.34 -1033.866)"/><path class="a" d="M4.642,1089.283a26.423,26.423,0,0,0,13.14-24.455l-40.889,23.607A26.422,26.422,0,0,0,4.642,1089.283Z" transform="translate(39.561 -1035.414)"/><path class="a" d="M5.209,1090.349a27.712,27.712,0,0,0,13.736-26.277l-.735.425a26.942,26.942,0,0,1-13.385,25.186,26.938,26.938,0,0,1-28.505-1l-.736.425A27.712,27.712,0,0,0,5.209,1090.349Z" transform="translate(39.635 -1035.371)"/><path class="a" d="M-23.3,1040.785a27.712,27.712,0,0,1,29.627,1.238l1.947-1.124a29.718,29.718,0,0,0-41.582,6.1,29.713,29.713,0,0,0-5.675,21.18l1.948-1.125A27.71,27.71,0,0,1-23.3,1040.785Z" transform="translate(40.462 -1033.744)"/><path class="a" d="M5.089,1090.285a27.711,27.711,0,0,1-29.622-1.245l-1.948,1.125a29.77,29.77,0,0,0,32.594,1.892,29.769,29.769,0,0,0,14.658-29.173l-1.942,1.121A27.713,27.713,0,0,1,5.089,1090.285Z" transform="translate(39.75 -1035.305)"/><path class="a" d="M6.431,1092.682a30.542,30.542,0,0,1-33.71-2.139l-.477.275a31.057,31.057,0,0,0,34.444,2.308,31.056,31.056,0,0,0,15.222-30.982l-.477.276A30.544,30.544,0,0,1,6.431,1092.682Z" transform="translate(39.822 -1035.263)"/><path class="a" d="M-24.781,1038.266a30.544,30.544,0,0,1,33.709,2.139l.477-.275a31,31,0,0,0-43.481,5.6A31,31,0,0,0-40.26,1068.8l.477-.275A30.541,30.541,0,0,1-24.781,1038.266Z" transform="translate(40.538 -1033.668)"/><path class="a" d="M4.611,1089.265a26.419,26.419,0,0,1-27.748-.848l-.5.288a26.94,26.94,0,0,0,28.5,1,26.941,26.941,0,0,0,13.383-25.185l-.5.288A26.421,26.421,0,0,1,4.611,1089.265Z" transform="translate(39.591 -1035.396)"/><path class="a" d="M-22.488,1042.062a26.42,26.42,0,0,1,27.748.846l.5-.288a26.9,26.9,0,0,0-37.349,7.253,26.9,26.9,0,0,0-4.537,16.929l.5-.287A26.42,26.42,0,0,1-22.488,1042.062Z" transform="translate(40.294 -1033.911)"/></g></g></svg>