<svg xmlns="http://www.w3.org/2000/svg" width="77.523" height="60.199" viewBox="0 0 77.523 60.199"><defs><style>.a{fill:#4eceb1;opacity:0.848;}</style></defs><path class="a" d="M-5319.052,3559.7a38.829,38.829,0,0,1-10.042-1.33,38.621,38.621,0,0,1-13.351-6.515,38.559,38.559,0,0,1-10.181-11.541,38.536,38.536,0,0,1-4.9-14.587,38.6,38.6,0,0,1,1.034-14.818,38.661,38.661,0,0,1,5.138-11.409h3.276a35.917,35.917,0,0,0-5.822,12.1,35.937,35.937,0,0,0-.963,13.794,35.853,35.853,0,0,0,4.565,13.575,35.843,35.843,0,0,0,9.475,10.742,35.952,35.952,0,0,0,12.427,6.064,36.149,36.149,0,0,0,9.348,1.237,36.293,36.293,0,0,0,4.447-.275,35.844,35.844,0,0,0,13.574-4.565,35.854,35.854,0,0,0,10.742-9.474,35.946,35.946,0,0,0,6.063-12.428,35.937,35.937,0,0,0,.963-13.794,35.844,35.844,0,0,0-4.565-13.575,36.778,36.778,0,0,0-2.224-3.4h3.273c.445.672.874,1.365,1.275,2.06a38.5,38.5,0,0,1,4.9,14.588,38.6,38.6,0,0,1-1.033,14.818,38.607,38.607,0,0,1-6.515,13.351,38.494,38.494,0,0,1-11.541,10.18,38.479,38.479,0,0,1-14.587,4.9A38.92,38.92,0,0,1-5319.052,3559.7Zm0-2.976a35.833,35.833,0,0,1-9.269-1.227,35.665,35.665,0,0,1-12.326-6.016,35.54,35.54,0,0,1-9.4-10.655,35.561,35.561,0,0,1-4.529-13.466,35.7,35.7,0,0,1,.954-13.682,35.638,35.638,0,0,1,5.905-12.177h.841c-.058.076-.121.156-.2.256a35.018,35.018,0,0,0-5.9,12.1,35.006,35.006,0,0,0-.936,13.426,34.91,34.91,0,0,0,4.443,13.213,34.9,34.9,0,0,0,9.222,10.454,34.973,34.973,0,0,0,12.1,5.9,35.153,35.153,0,0,0,9.1,1.206,35.3,35.3,0,0,0,4.327-.268,34.89,34.89,0,0,0,13.213-4.444,34.884,34.884,0,0,0,10.454-9.222,34.983,34.983,0,0,0,5.9-12.1,34.972,34.972,0,0,0,.936-13.426,34.865,34.865,0,0,0-4.443-13.213,35.685,35.685,0,0,0-2.594-3.884h.84a36.373,36.373,0,0,1,2.334,3.548,35.557,35.557,0,0,1,4.529,13.468,35.63,35.63,0,0,1-.955,13.68,35.649,35.649,0,0,1-6.014,12.327,35.564,35.564,0,0,1-10.655,9.4,35.563,35.563,0,0,1-13.466,4.527A35.984,35.984,0,0,1-5319.054,3556.722Zm-.7-6.443h0l-.473-.015-1.328-4.012-.267-.008,0-.11,1.889.061,0,.109-.411-.013.382,1.26,1.143.036.485-1.232-.434-.014,0-.11.883.027,0,.11-.271-.008-1.6,3.918Zm-.166-2.6.454,1.527.591-1.495Zm3.3,1.221h0l-.015-.1.287-.042.623-3.237c.143-.73.386-1.042.867-1.112a1.159,1.159,0,0,1,.164-.012.577.577,0,0,1,.636.486.436.436,0,0,1-.392.529.856.856,0,0,1-.124.01.367.367,0,0,1-.408-.335.758.758,0,0,1,.005-.21l.2-.03a.291.291,0,0,0-.033-.237.14.14,0,0,0-.114-.048l-.039,0c-.3.043-.5.367-.632,1.049l-.075.373.5-.073,1.357,2.478.234-.035.015.1-1.659.24-.015-.1.309-.044-.9-1.81-.388,2,.382-.055.015.1-.806.117Zm-6.619-.228a2.377,2.377,0,0,1-.361-.03c-.653-.1-1-.435-.932-.889.047-.3.216-.47.462-.47a.614.614,0,0,1,.095.008.534.534,0,0,1,.364.2.462.462,0,0,1,.069.357.719.719,0,0,1-.061.2l-.187-.03a.6.6,0,0,0-.073.2.278.278,0,0,0,.039.213.279.279,0,0,0,.192.1.456.456,0,0,0,.069.006c.29,0,.459-.323.583-1.114l.047-.3a1.845,1.845,0,0,0,0-.841.457.457,0,0,0-.411-.3.862.862,0,0,0-.132-.01.884.884,0,0,0-.79.633l-.1-.028a1.045,1.045,0,0,1,1.055-.765,1.971,1.971,0,0,1,.3.025,1.256,1.256,0,0,1,1.155,1.594,1.4,1.4,0,0,1-.644,1.061A1.483,1.483,0,0,1-5323.237,3548.675Zm10.239-.325a.541.541,0,0,1-.545-.472.58.58,0,0,1,.036-.445.468.468,0,0,1,.3-.208.717.717,0,0,1,.181-.025.387.387,0,0,1,.291.112.581.581,0,0,1,.129.433l-.2.051a.272.272,0,0,0,.02.224.123.123,0,0,0,.1.042.3.3,0,0,0,.071-.01c.277-.072.411-.559.285-1.042l-.388-1.5-.4.1-.025-.1,1.744-.451.027.1-.309.081.637,2.46.308-.081.026.1-1.347.349-.14-.537a.773.773,0,0,1-.6.786A.812.812,0,0,1-5313,3548.35Zm-12.962-.267a2.165,2.165,0,0,1-.554-.078c-.638-.17-.949-.537-.832-.98.072-.272.234-.421.456-.421a.566.566,0,0,1,.146.02.454.454,0,0,1,.374.6.807.807,0,0,1-.082.194l-.183-.05a.588.588,0,0,0-.093.191.277.277,0,0,0,.015.217.28.28,0,0,0,.18.122.418.418,0,0,0,.1.014c.268,0,.465-.313.662-1.047l.077-.29a1.856,1.856,0,0,0,.09-.815.463.463,0,0,0-.378-.367.816.816,0,0,0-.211-.029.932.932,0,0,0-.771.549l-.1-.036a1.041,1.041,0,0,1,.974-.658,1.784,1.784,0,0,1,.457.066,1.255,1.255,0,0,1,.979,1.706,1.442,1.442,0,0,1-.643.93A1.32,1.32,0,0,1-5325.959,3548.082Zm16.411-.822c-.374,0-.61-.217-.817-.749l-.425-1.093c-.062-.158-.128-.231-.207-.231a.162.162,0,0,0-.058.012c-.124.051-.124.253,0,.638l-.083.026c-.216-.629-.123-.905.368-1.095a1.326,1.326,0,0,1,.466-.1.489.489,0,0,1,.431.213.6.6,0,0,1,.464-.64,1.286,1.286,0,0,1,.454-.1.608.608,0,0,1,.6.44c.214.555-.236.861-.979,1.149l-.156.061.16.415c.228.587.353.776.513.776a.266.266,0,0,0,.1-.021.242.242,0,0,0,.17-.314.515.515,0,0,0-.094-.144l-.133.052a.688.688,0,0,1-.139-.225.425.425,0,0,1,0-.331.537.537,0,0,1,.308-.274.671.671,0,0,1,.238-.05.418.418,0,0,1,.4.317c.137.354-.014.652-.462.91a2.931,2.931,0,0,1-.405.19A2.026,2.026,0,0,1-5309.549,3547.26Zm-.088-2.677a.15.15,0,0,0-.054.012l-.008,0c-.1.059-.152.272-.023.6l.194.5.038-.013c.224-.088.271-.291.143-.621l-.032-.086C-5309.5,3544.68-5309.56,3544.583-5309.637,3544.583Zm-18.993,2.635a1.807,1.807,0,0,1-.654-.131,1.3,1.3,0,0,1-.79-.653,1.311,1.311,0,0,1,.09-1.028l1.521.586.081-.209c.213-.554.333-1.1-.225-1.313a.848.848,0,0,0-.308-.061.932.932,0,0,0-.736.424l-.091-.052a1.04,1.04,0,0,1,.879-.5,1.711,1.711,0,0,1,.606.129,1.33,1.33,0,0,1,.876,1.869,1.466,1.466,0,0,1-.614.773A1.249,1.249,0,0,1-5328.629,3547.218Zm-.436-1.334h0l-.1.263c-.215.557-.251.77-.026.858a.247.247,0,0,0,.087.017c.167,0,.319-.2.495-.66l.1-.264-.555-.214Zm-2.219.209a1.147,1.147,0,0,1-.521-.135,1.343,1.343,0,0,1-.459-.384l-.021-.025a.286.286,0,0,0-.1-.09.147.147,0,0,0-.068-.018.384.384,0,0,0-.2.1l-.058-.03.4-.786.062.032a.96.96,0,0,0,.471,1.083.8.8,0,0,0,.353.1.3.3,0,0,0,.277-.156c.11-.215-.112-.413-.369-.642l-.047-.042-.036-.032c-.359-.323-.717-.717-.411-1.32a.894.894,0,0,1,.812-.552,1.328,1.328,0,0,1,.6.163,1.426,1.426,0,0,1,.542.465.286.286,0,0,0,.077.092.167.167,0,0,0,.077.018.472.472,0,0,0,.243-.1l.061.031-.47.921-.061-.031c.118-.653-.036-1.036-.514-1.281a.907.907,0,0,0-.394-.116.316.316,0,0,0-.3.184c-.112.214.081.39.373.655l.07.064c.378.345.723.729.439,1.287a.994.994,0,0,1-.389.427A.866.866,0,0,1-5331.284,3546.093Zm24.723-.056a.913.913,0,0,1-.753-.54l-.893-1.492-.277.166-.054-.089,1.375-.821.054.089-.174.1.964,1.612c.173.289.277.407.359.407a.124.124,0,0,0,.066-.021c.174-.1.206-.479-.047-.9l-.836-1.4-.179.108-.054-.089,1.274-.764.053.089-.172.105.964,1.61c.172.289.277.407.359.407a.127.127,0,0,0,.066-.022.265.265,0,0,0,.112-.17,1.1,1.1,0,0,0-.177-.76l-.818-1.368-.179.107-.053-.089,1.374-.822.053.089-.272.163,1.3,2.182.273-.164.054.092-1.2.714-.273-.455a.763.763,0,0,1-.4.922.921.921,0,0,1-.47.148.746.746,0,0,1-.548-.263.848.848,0,0,1-.41.971l-.021.012A.906.906,0,0,1-5306.561,3546.037Zm-26.988-1.223a1.113,1.113,0,0,1-.595-.189,1.345,1.345,0,0,1-.421-.426l-.014-.021-.009-.013a.246.246,0,0,0-.087-.093.144.144,0,0,0-.08-.026.441.441,0,0,0-.194.078l-.054-.035.476-.745.059.038a.958.958,0,0,0,.365,1.123.74.74,0,0,0,.383.138.282.282,0,0,0,.251-.131c.127-.2-.07-.416-.3-.665l-.083-.092c-.327-.356-.645-.783-.283-1.352a.91.91,0,0,1,.773-.474,1.257,1.257,0,0,1,.669.224,1.429,1.429,0,0,1,.5.513.266.266,0,0,0,.067.1.172.172,0,0,0,.1.026.521.521,0,0,0,.229-.072l.058.036-.556.873-.058-.038c.179-.641.063-1.036-.389-1.324a.822.822,0,0,0-.421-.157.313.313,0,0,0-.277.157c-.13.2.044.394.307.685l.066.073c.343.381.65.8.313,1.324a1.034,1.034,0,0,1-.354.349A.856.856,0,0,1-5333.548,3544.814Zm32.171-.416a.5.5,0,0,1-.4-.222.537.537,0,0,1-.128-.4.6.6,0,0,1,.257-.389.634.634,0,0,1,.382-.155.52.52,0,0,1,.4.225.526.526,0,0,1,.125.39.607.607,0,0,1-.26.394.922.922,0,0,1-.1.07A.559.559,0,0,1-5301.377,3544.4Zm-.93-1h0l-1.618-2.089-.256.2-.065-.082,1.355-1.051.064.083-.252.194,1.556,2.007.271-.209.063.083-1.117.866Zm1.376-1.182a.612.612,0,0,1-.445-.225.478.478,0,0,1-.019-.733.53.53,0,0,1,.351-.164c.168,0,.314.116.425.335l-.153.143c.039.128.094.193.164.193a.2.2,0,0,0,.125-.061.371.371,0,0,0,.105-.267,1.184,1.184,0,0,0-.35-.785l-1.054-1.133-.3.279-.071-.075,1.32-1.227.072.077-.233.215,1.73,1.86.233-.217.071.078-1.02.947-.377-.405a.776.776,0,0,1-.151.975.791.791,0,0,1-.149.112A.538.538,0,0,1-5300.931,3542.219Zm-18.093-1.433a20.047,20.047,0,0,1-12.165-4.133l.306-.176.464-.268,1.249-.72.473-.273.318-.184,26.18-15.113.319-.186.473-.272,1.247-.72.466-.268.306-.178a19.907,19.907,0,0,1-1.8,11.269,19.722,19.722,0,0,1-7.947,8.57A19.809,19.809,0,0,1-5319.024,3540.786Zm21.171-.183a1.072,1.072,0,0,1-.69-.292c-.664-.557-.587-1.225.257-2.234l.03-.036-1.188-1-.462.556-.085-.072,1.428-1.7.084.069-.241.29,2.934,2.455.24-.288.085.071-1.091,1.3a3.118,3.118,0,0,1-.792.727A1,1,0,0,1-5297.853,3540.6Zm-.319-2.491h0l-.076.092a.548.548,0,0,0-.154.4c.018.2.177.418.531.714l.213.178a1.139,1.139,0,0,0,.659.349.511.511,0,0,0,.39-.225l.1-.12-1.662-1.39Zm-43.347-1.209h0l-5.662-4.709-.4.23-.1-.166,2.832-1.635.1.166-.615.355,3.955,3.489-.994-5.2-.675.389-.1-.164,1.325-.765.1.164-.407.236,1.368,7.188-.728.42Zm45.976-.644h0l-.089-.053.2-.352-.166-.885-2.2-.1-.1.18-.09-.051.794-1.4.092.051-.132.232,1.488.1.028-.109-1.139-.649-.131.23-.09-.051.82-1.439.092.051-.158.276,3.582,2.043.168-.3.09.051-.7,1.229-2.432-1.387-.016.1.293,1.664.271-.471.09.051-.563.989Zm-42.522-1.756a2.276,2.276,0,0,1-1.977-1.3,2.415,2.415,0,0,1-.286-2.022,2.7,2.7,0,0,1,1.266-1.42,2.678,2.678,0,0,1,1.309-.415,1.975,1.975,0,0,1,1.72,1.3l-2.441,1.41.194.338c.37.641.831,1.3,1.44,1.3a1.136,1.136,0,0,0,.572-.173,1.5,1.5,0,0,0,.645-1.8l.17-.065a1.952,1.952,0,0,1-1.119,2.4A3.015,3.015,0,0,1-5338.065,3534.5Zm-.766-4.6a.429.429,0,0,0-.213.065.415.415,0,0,0-.2.463,3.058,3.058,0,0,0,.429,1.02l.245.424.892-.515-.245-.424C-5338.315,3530.25-5338.565,3529.9-5338.832,3529.9Zm4.4,2.8h0l-.09-.155.477-.275-2.2-3.811-.475.276-.09-.156,2.087-1.205.479.831a1.343,1.343,0,0,1,.632-1.588,1.19,1.19,0,0,1,.595-.177,1,1,0,0,1,.857.574,1,1,0,0,1,.144.76.8.8,0,0,1-.4.483,1.027,1.027,0,0,1-.51.157c-.355,0-.615-.265-.73-.745l.311-.18c-.018-.263-.1-.4-.247-.4a.39.39,0,0,0-.189.061.814.814,0,0,0-.323.731,2.3,2.3,0,0,0,.327,1.136l1.34,2.322.615-.355.09.156-2.7,1.559Zm40.51-.338a1.636,1.636,0,0,1-.6-.145l-1.085-.443a.546.546,0,0,0-.2-.051.138.138,0,0,0-.141.093c-.05.123.1.262.463.438l-.038.078c-.605-.276-.742-.534-.543-1.021.159-.391.361-.581.617-.581a.553.553,0,0,1,.08.006.592.592,0,0,1-.143-.776c.16-.394.385-.593.669-.593a.793.793,0,0,1,.3.065c.549.224.461.762.161,1.5l-.065.154.412.17a2.329,2.329,0,0,0,.743.224.214.214,0,0,0,.224-.147.314.314,0,0,0,.01-.226.209.209,0,0,0-.122-.114.493.493,0,0,0-.167-.031l-.055.133a.67.67,0,0,1-.258-.055.422.422,0,0,1-.236-.23.536.536,0,0,1,.013-.411.437.437,0,0,1,.4-.327.614.614,0,0,1,.227.05.582.582,0,0,1,.334.316,1.477,1.477,0,0,1-.135,1.07,1.47,1.47,0,0,1-.535.768A.66.66,0,0,1-5293.923,3532.358Zm-1.412-2.03a.121.121,0,0,0-.062.014.11.11,0,0,0-.048.063.148.148,0,0,0,.007.114.694.694,0,0,0,.412.325l.5.2.015-.039a.314.314,0,0,0,.01-.247.608.608,0,0,0-.36-.282l-.086-.035A1.237,1.237,0,0,0-5295.335,3530.329Zm-34.81-.107h0l-.09-.155.476-.275-2.2-3.81-.512.295-.09-.156,2.123-1.225,2.291,3.967.485-.28.09.155-2.571,1.485Zm36.944-.676a2.039,2.039,0,0,1-.538-.081,1.514,1.514,0,0,1-.958-.627,1.486,1.486,0,0,1-.068-1.179,1.28,1.28,0,0,1,1.248-1.1,1.931,1.931,0,0,1,.509.075,1.416,1.416,0,0,1,.932.672,1.544,1.544,0,0,1,.06,1.154,1.483,1.483,0,0,1-.625.951A1.1,1.1,0,0,1-5293.2,3529.546Zm-1.12-2.07a.433.433,0,0,0-.22.047.272.272,0,0,0-.127.175c-.043.155.01.261.175.355a3.943,3.943,0,0,0,.784.268l.473.132a3.392,3.392,0,0,0,.792.16c.189,0,.295-.064.333-.2a.271.271,0,0,0-.021-.218c-.107-.189-.458-.3-.942-.433l-.435-.12A3.5,3.5,0,0,0-5294.321,3527.476Zm-33.079,1.161h0l-.09-.155.477-.275-2.2-3.81-.5.29-.089-.156.5-.29-.009-.017a2.921,2.921,0,0,1-.417-2.251,3.176,3.176,0,0,1,1.618-1.85,2.435,2.435,0,0,1,1.186-.363,1.1,1.1,0,0,1,.992.515.892.892,0,0,1,.125.667.848.848,0,0,1-.426.513.992.992,0,0,1-.493.148.654.654,0,0,1-.58-.349,1.809,1.809,0,0,1-.163-.4l.3-.3a.413.413,0,0,0-.421-.4,1.116,1.116,0,0,0-.521.168,1.129,1.129,0,0,0-.578.66,1.255,1.255,0,0,0,.2.946l.8,1.384,2.848-1.644,2.291,3.966.484-.28.09.156-2.486,1.436-.089-.156.389-.225-2.2-3.811-1.238.715,2.2,3.811.555-.32.09.156-2.641,1.524Zm37.389-2.02h0l-4.159-.739-.055.318-.1-.017.3-1.687.1.018-.057.313,4.058.72.061-.335.1.019-.248,1.392Zm-42.157-1.677a.87.87,0,0,1-.744-.489,1,1,0,0,1-.142-.576.982.982,0,0,1,.562-.74,1.185,1.185,0,0,1,.584-.18.832.832,0,0,1,.732.483.936.936,0,0,1,.131.7,1.038,1.038,0,0,1-.536.624A1.192,1.192,0,0,1-5332.168,3524.94Zm11.2-.306a2.275,2.275,0,0,1-1.976-1.3,2.409,2.409,0,0,1-.286-2.022,2.711,2.711,0,0,1,1.266-1.42,2.675,2.675,0,0,1,1.307-.414,1.978,1.978,0,0,1,1.722,1.3l-2.443,1.41.2.337c.525.909.956,1.3,1.439,1.3a1.134,1.134,0,0,0,.573-.173,1.49,1.49,0,0,0,.644-1.8l.171-.065a1.929,1.929,0,0,1-1.119,2.4A3.018,3.018,0,0,1-5320.971,3524.634Zm-.766-4.6a.424.424,0,0,0-.212.065c-.328.189-.258.633.231,1.483l.245.424.892-.514-.245-.424c-.395-.686-.644-1.034-.91-1.034Zm31.832,4.306h0l-1.254-.035.006-.105c.866-.321,1.247-.644,1.274-1.08a.693.693,0,0,0-.167-.523,2.182,2.182,0,0,0-1.5-.481l-.455-.03c-.11-.007-.217-.011-.318-.011-.926,0-1.455.3-1.489.832-.028.425.351.832,1.158,1.244l-.006.1-1.282-.124,0-.063c.076-.034.121-.054.126-.147a1.148,1.148,0,0,0-.036-.271,3.122,3.122,0,0,1-.071-.889,1.76,1.76,0,0,1,1.926-1.85c.071,0,.147,0,.226.008a2.227,2.227,0,0,1,1.554.654,1.956,1.956,0,0,1,.45,1.474,2.668,2.668,0,0,1-.176.8l0,.007a1.019,1.019,0,0,0-.069.255c-.005.092.034.117.106.163l0,.063Zm-57.034-.285h0l-.165-2.42.1-.007,2.63,1.193-.007-.075c-.042-.635-.377-.959-1.158-1.119l-.005-.081,1.188.012.165,2.421-.086.005-2.647-1.216,0,.063c.051.771.234.965,1.085,1.149l.005.074Zm8.2-.473h0a19.886,19.886,0,0,1,1.8-11.265,19.715,19.715,0,0,1,7.947-8.569,19.812,19.812,0,0,1,9.89-2.655,20.05,20.05,0,0,1,12.164,4.131l-.306.176-.466.27h0l-1.247.72-.473.272h0l-.319.184-26.18,15.115-.318.185-.473.273-1.249.72-.464.268-.3.176Zm19.272-21.668a19.014,19.014,0,0,0-8.563,2.235A19.026,19.026,0,0,1-5319.464,3501.912Zm2.959,20.3c-.7,0-1.37-.514-1.932-1.487-.826-1.432-.667-2.491.47-3.147a1.7,1.7,0,0,1,.822-.267.849.849,0,0,1,.428.112l-1.475-2.554-.529.3-.089-.156,2.164-1.25,3.66,6.339.426-.245.089.156-1.922,1.11-.446-.551a1.306,1.306,0,0,1-.8,1.383A1.736,1.736,0,0,1-5316.5,3522.212Zm-.591-4.723a.51.51,0,0,0-.258.071c-.211.122-.267.321-.18.646a6.319,6.319,0,0,0,.659,1.364l.26.451c.563.975.845,1.3,1.115,1.3a.458.458,0,0,0,.231-.072c.207-.12.49-.532.082-1.238l-1.089-1.888A1.082,1.082,0,0,0-5317.1,3517.488Zm-29.042,3.475c-.072,0-.149,0-.227-.008a2.228,2.228,0,0,1-1.554-.654,1.953,1.953,0,0,1-.45-1.472,2.682,2.682,0,0,1,.178-.81l0-.006a1.05,1.05,0,0,0,.069-.251c.005-.094-.037-.12-.106-.163l0-.063,1.253.033-.006.105c-.853.315-1.246.647-1.274,1.08-.038.6.508.93,1.667,1l.455.03c.11.007.217.011.317.011.925,0,1.454-.3,1.49-.832.027-.426-.352-.833-1.159-1.244l.008-.1,1.282.123,0,.063c-.077.037-.12.056-.125.148a1.12,1.12,0,0,0,.035.265,3.182,3.182,0,0,1,.07.895,1.839,1.839,0,0,1-.842,1.594A2.142,2.142,0,0,1-5346.137,3520.963Zm53.552-.631h0l-1.188-.013-.163-2.42.085-.007,2.648,1.216-.005-.063c-.051-.77-.233-.963-1.084-1.149l-.006-.075h1.113l.163,2.42-.1.008-2.629-1.195.005.074c.043.644.369.959,1.16,1.122l.005.08Zm-16.812-2.09h0l-.1-.181.737-.426-3.29-5.7-.113.065c-.783.452-.71,1.26-.373,2.871l-.166.1-1.167-2.223,5.109-2.95,1.341,2.124-.164.1c-1-.893-1.541-1.292-2.07-1.292a1.2,1.2,0,0,0-.6.179l-.1.061,3.29,5.7.737-.426.1.182-3.161,1.824Zm-34.7-.858h0l-.1-.019.055-.312-4.058-.72-.059.335-.1-.019.248-1.393,4.158.739.057-.318.1.017-.3,1.688Zm39.152-1.711h0l-.09-.155.477-.275-2.2-3.811-.477.275-.09-.156,2.087-1.205.481.832a1.34,1.34,0,0,1,.63-1.588,1.194,1.194,0,0,1,.6-.178,1,1,0,0,1,.857.574,1.036,1.036,0,0,1,.156.717.8.8,0,0,1-.409.528,1.031,1.031,0,0,1-.509.156c-.355,0-.615-.265-.731-.746l.313-.181c-.019-.263-.1-.4-.248-.4a.39.39,0,0,0-.189.061.644.644,0,0,0-.281.411,2.042,2.042,0,0,0,.287,1.457l1.34,2.322.615-.355.089.156-2.7,1.56Zm-39.667-.354a1.92,1.92,0,0,1-.509-.075,1.339,1.339,0,0,1-.991-1.826c.2-.733.592-1.09,1.187-1.09a2.039,2.039,0,0,1,.538.081,1.293,1.293,0,0,1,1.026,1.806,1.5,1.5,0,0,1-.646.952A1.194,1.194,0,0,1-5344.611,3515.318Zm-1.071-2.058a.436.436,0,0,0-.218.046.254.254,0,0,0-.115.155.27.27,0,0,0,.021.217c.107.19.458.3.943.433l.434.12a3.5,3.5,0,0,0,.813.167c.193,0,.3-.071.345-.222a.27.27,0,0,0-.016-.214c-.1-.17-.42-.267-.941-.411l-.473-.132A3.411,3.411,0,0,0-5345.682,3513.26Zm45.935-.708a1.551,1.551,0,0,1-1.3-.94l-1.505-2.607-.485.28-.09-.156,2.1-1.209,1.714,2.969c.3.516.479.717.647.717a.326.326,0,0,0,.163-.053.59.59,0,0,0,.287-.512,1.623,1.623,0,0,0-.257-.856l-1.53-2.65-.4.23-.09-.156,2.009-1.159,2.291,3.966.477-.275.089.156-1.974,1.141-.46-.578c.064.461.009.953-.807,1.423A1.768,1.768,0,0,1-5299.748,3512.552Zm-43.537-.042a.8.8,0,0,1-.3-.066.579.579,0,0,1-.4-.546,2.387,2.387,0,0,1,.24-.954l.063-.156-.411-.167a2.346,2.346,0,0,0-.746-.226.213.213,0,0,0-.223.147.313.313,0,0,0-.009.226.208.208,0,0,0,.121.112.475.475,0,0,0,.168.032l.054-.133a.664.664,0,0,1,.258.055.421.421,0,0,1,.236.229.539.539,0,0,1-.011.412.44.44,0,0,1-.4.328.606.606,0,0,1-.227-.05.583.583,0,0,1-.334-.315,1.48,1.48,0,0,1,.134-1.071c.252-.614.5-.854.873-.854a1.636,1.636,0,0,1,.6.145l1.085.443a.557.557,0,0,0,.2.051.134.134,0,0,0,.139-.091c.052-.123-.1-.263-.463-.439l.039-.078c.606.277.742.534.543,1.021-.16.391-.362.581-.616.581a.565.565,0,0,1-.082-.006.592.592,0,0,1,.144.777,1.011,1.011,0,0,1-.392.518A.548.548,0,0,1-5343.285,3512.51Zm-.313-1.686h0l-.015.037a.314.314,0,0,0-.008.249.6.6,0,0,0,.36.281l.085.035a1.241,1.241,0,0,0,.386.118.1.1,0,0,0,.109-.078.216.216,0,0,0-.066-.2.888.888,0,0,0-.353-.234l-.5-.2Zm1.729-.913h0l-.089-.049.156-.276-3.581-2.044-.17.3-.09-.053.7-1.229,2.435,1.388.016-.1-.295-1.664-.27.473-.09-.052.563-.989.092.051-.2.351.166.886,2.2.1.1-.18.09.051-.8,1.4-.09-.052.132-.23-1.488-.1-.03.109,1.139.649.132-.229.09.05-.821,1.438Zm47.243-.487a2.277,2.277,0,0,1-1.977-1.305,2.411,2.411,0,0,1-.285-2.021,2.707,2.707,0,0,1,1.265-1.42,2.676,2.676,0,0,1,1.308-.415,1.977,1.977,0,0,1,1.721,1.3l-2.443,1.41.2.337c.525.91.956,1.3,1.44,1.3a1.137,1.137,0,0,0,.572-.172,1.493,1.493,0,0,0,.644-1.8l.171-.064a1.931,1.931,0,0,1-1.119,2.4A3.016,3.016,0,0,1-5294.626,3509.425Zm-.766-4.6a.429.429,0,0,0-.213.065.414.414,0,0,0-.2.463,3.058,3.058,0,0,0,.429,1.02l.244.424.892-.514-.244-.424C-5294.876,3505.17-5295.125,3504.822-5295.392,3504.822Zm-44.172,1.226h0l-.083-.069.241-.288-2.934-2.455-.241.287-.083-.07,1.089-1.3c.51-.607.911-.878,1.3-.878a1.075,1.075,0,0,1,.692.292,1.1,1.1,0,0,1,.439.749,2.2,2.2,0,0,1-.7,1.483l-.029.036,1.188.994.463-.553.084.07-1.428,1.705Zm-1.562-4.022a.391.391,0,0,0-.2.055.69.69,0,0,0-.191.17l-.1.12,1.662,1.391.077-.093a.546.546,0,0,0,.153-.4c-.018-.2-.177-.418-.532-.715l-.211-.178A1.142,1.142,0,0,0-5341.126,3502.026Zm3.833,1.348h0l-.069-.075.231-.217-1.729-1.86-.234.217-.07-.077,1.019-.948.377.407a.774.774,0,0,1,.151-.976.629.629,0,0,1,.422-.189.613.613,0,0,1,.446.226.579.579,0,0,1,.178.408.462.462,0,0,1-.161.323.53.53,0,0,1-.351.164c-.167,0-.314-.116-.424-.335l.152-.141c-.038-.129-.093-.195-.164-.195a.2.2,0,0,0-.125.061.375.375,0,0,0-.106.268,1.18,1.18,0,0,0,.35.782l1.053,1.134.3-.279.072.077-1.32,1.225Zm2.058-1.877h0l-.062-.081.25-.2-1.333-1.719h1.357l.824,1.064.256-.2.063.082-1.354,1.05Zm1.316-1.115h0l-.052-.088.272-.163-.376-.63h1.253l.047.078.132-.078h.064l.036.061-1.374.821Zm29.152-.438h0a1.251,1.251,0,0,1-.667-.223,1.454,1.454,0,0,1-.275-.221h.187a1.35,1.35,0,0,0,.146.106.827.827,0,0,0,.422.157.313.313,0,0,0,.276-.156.268.268,0,0,0,.042-.108h.622a1.069,1.069,0,0,1-.345.335A.808.808,0,0,1-5304.768,3499.943Z" transform="translate(5357.825 -3499.5)"/></svg>