<svg xmlns="http://www.w3.org/2000/svg" width="11" height="11.667" viewBox="0 0 11 11.667"><defs><style>.a{fill:#666;fill-rule:evenodd;}</style></defs><path class="a" d="M229.75-3226.5a.417.417,0,0,1,.417.417v1.25h7.667v-1.25a.417.417,0,0,1,.417-.417h.833a.417.417,0,0,1,.417.417V-3224a.833.833,0,0,1-.833.834h-9.333a.833.833,0,0,1-.833-.834v-2.083a.417.417,0,0,1,.417-.417Zm4.646-.925,3.125-3.125a.416.416,0,0,0,0-.589l-.589-.59a.418.418,0,0,0-.589,0l-1.509,1.509v-4.2a.417.417,0,0,0-.417-.417h-.833a.417.417,0,0,0-.417.417v3.994l-1.306-1.307a.418.418,0,0,0-.589,0l-.589.59a.416.416,0,0,0,0,.589l3.125,3.125A.418.418,0,0,0,234.4-3227.425Z" transform="translate(-228.5 3234.833)"/></svg>