<svg xmlns="http://www.w3.org/2000/svg" width="14" height="13" viewBox="0 0 14 13"><defs><style>.a{fill:#767676;}.b{fill:none;}</style></defs><g transform="translate(-0.216 0)"><path class="a" d="M10.166,3.468l-.054-.061L6.893.189a.644.644,0,0,0-.964.85l.054.061L8.1,3.219H.644A.644.644,0,0,0,.569,4.5l.075,0H8.1l-2.12,2.12a.644.644,0,0,0-.054.85l.054.061a.644.644,0,0,0,.85.054l.061-.054,3.219-3.219A.644.644,0,0,0,10.166,3.468Z" transform="translate(10.694 1.44) rotate(90)"/><rect class="b" width="14" height="13" transform="translate(0.216 0)"/></g></svg>