<svg xmlns="http://www.w3.org/2000/svg" width="11.626" height="10.173" viewBox="0 0 11.626 10.173"><defs><style>.a{fill:#666;fill-rule:evenodd;}</style></defs><path class="a" d="M510.238-2955.352a6.273,6.273,0,0,0-6.238,6.306,7.209,7.209,0,0,0,.07.873.142.142,0,0,0,.159.122.141.141,0,0,0,.1-.065l.09-.14q.13-.2.226-.323a5.991,5.991,0,0,1,4.869-2.072h.722v2.536a.29.29,0,0,0,.292.288.294.294,0,0,0,.206-.084l4.762-4.7a.427.427,0,0,0,0-.61l-4.762-4.7a.294.294,0,0,0-.413,0,.286.286,0,0,0-.085.2Z" transform="translate(-504 2958)"/></svg>