<svg xmlns="http://www.w3.org/2000/svg" width="11.938" height="13.121" viewBox="0 0 11.938 13.121"><defs><style>.a{fill:#666;}</style></defs><g transform="translate(-47.43 0.25)"><path class="a" d="M58.329,0h-9.86a.789.789,0,0,0-.789.789V11.832a.789.789,0,0,0,.789.789h9.86a.789.789,0,0,0,.789-.789V.789A.789.789,0,0,0,58.329,0Zm0,11.832h-9.86V.789h9.86Z"/><path class="a" d="M48.469-.25h9.86A1.04,1.04,0,0,1,59.368.789V11.832a1.04,1.04,0,0,1-1.039,1.039h-9.86a1.04,1.04,0,0,1-1.039-1.039V.789A1.04,1.04,0,0,1,48.469-.25Zm9.86,12.621a.539.539,0,0,0,.539-.539V.789A.539.539,0,0,0,58.329.25h-9.86a.539.539,0,0,0-.539.539V11.832a.539.539,0,0,0,.539.539ZM48.219.539h10.36V12.082H48.219Zm9.86.5h-9.36V11.582h9.36Z"/><path class="a" d="M240.074,241.429h5.818a.394.394,0,0,0,0-.789h-5.818a.394.394,0,0,0,0,.789Zm0,2.895h5.037a.394.394,0,0,0,0-.789h-5.037a.394.394,0,0,0,0,.789Zm0,2.445h4.642a.394.394,0,0,0,0-.789h-4.642a.394.394,0,0,0,0,.789Z" transform="translate(-189.634 -237.674)"/><path class="a" d="M240.074,240.39h5.818a.644.644,0,0,1,0,1.289h-5.818a.644.644,0,0,1,0-1.289Zm5.818.789a.144.144,0,0,0,0-.289h-5.818a.144.144,0,1,0,0,.289Zm-5.818,2.106h5.037a.644.644,0,0,1,0,1.289h-5.037a.644.644,0,0,1,0-1.289Zm5.037.789a.144.144,0,1,0,0-.289h-5.037a.144.144,0,1,0,0,.289Zm-5.037,1.657h4.642a.644.644,0,0,1,0,1.289h-4.642a.644.644,0,0,1,0-1.289Zm4.642.789a.144.144,0,0,0,0-.289h-4.642a.144.144,0,1,0,0,.289Z" transform="translate(-189.634 -237.674)"/></g></svg>