<svg xmlns="http://www.w3.org/2000/svg" width="77.523" height="60.198" viewBox="0 0 77.523 60.198"><defs><style>.a{fill:#d75079;opacity:0.848;}</style></defs><path class="a" d="M38.771,60.2A38.781,38.781,0,0,1,6.466,0H9.742A36.038,36.038,0,0,0,7.525,39.47a35.957,35.957,0,0,0,21.9,16.806,35.95,35.95,0,0,0,13.8.962A36.034,36.034,0,0,0,73.6,30.772,35.943,35.943,0,0,0,70,3.4,36.776,36.776,0,0,0,67.774,0h3.273c.444.671.873,1.364,1.275,2.06a38.794,38.794,0,0,1-2.644,42.756A38.871,38.871,0,0,1,43.551,59.9,38.936,38.936,0,0,1,38.771,60.2Zm0-2.976a35.951,35.951,0,0,1-21.6-7.242A35.746,35.746,0,0,1,4.2,12.177,35.67,35.67,0,0,1,10.106,0h.842l-.195.256A35.072,35.072,0,0,0,8.359,38.989,35.17,35.17,0,0,0,38.774,56.551a35.266,35.266,0,0,0,4.327-.268,35.072,35.072,0,0,0,29.569-25.76A34.99,34.99,0,0,0,69.164,3.884,35.681,35.681,0,0,0,66.57,0h.842a36.431,36.431,0,0,1,2.334,3.548A35.824,35.824,0,0,1,67.3,43.023,35.9,35.9,0,0,1,43.184,56.948,35.949,35.949,0,0,1,38.773,57.222Zm-.7-6.442h0l-.474-.015-1.328-4.011L36,46.744l0-.11,1.888.06,0,.109-.41-.013.382,1.261L39,48.088l.484-1.233-.434-.013,0-.11.882.027,0,.11-.271-.008-1.6,3.919Zm-.166-2.6.454,1.526.59-1.495Zm3.3,1.22h0l-.014-.1.286-.041L42.1,46.02c.143-.732.386-1.043.867-1.112a1.16,1.16,0,0,1,.165-.012.576.576,0,0,1,.635.486.438.438,0,0,1-.392.53.856.856,0,0,1-.123.009.369.369,0,0,1-.409-.335.814.814,0,0,1,.005-.212l.2-.029a.291.291,0,0,0-.032-.237.142.142,0,0,0-.115-.048l-.039,0c-.3.043-.5.367-.631,1.049l-.075.373.5-.072,1.358,2.478.234-.034.015.1-1.659.239-.015-.1.309-.045-.9-1.81-.389,2L42,49.182l.014.1-.805.116Zm-6.618-.227a2.36,2.36,0,0,1-.363-.03c-.653-.1-1-.434-.931-.888.047-.3.215-.47.462-.47a.6.6,0,0,1,.1.008.535.535,0,0,1,.364.195.463.463,0,0,1,.07.357.754.754,0,0,1-.06.2l-.188-.031a.6.6,0,0,0-.072.2.273.273,0,0,0,.044.222.287.287,0,0,0,.187.1.44.44,0,0,0,.068.006c.291,0,.46-.323.583-1.114l.047-.3c.078-.5.058-.791-.066-.961a.5.5,0,0,0-.346-.185.856.856,0,0,0-.133-.011.892.892,0,0,0-.788.632l-.1-.027a1.047,1.047,0,0,1,1.057-.766,1.982,1.982,0,0,1,.3.025,1.257,1.257,0,0,1,1.156,1.6,1.394,1.394,0,0,1-.644,1.061A1.475,1.475,0,0,1,34.589,49.174Zm10.239-.324a.542.542,0,0,1-.545-.473.6.6,0,0,1,.021-.416.459.459,0,0,1,.311-.237.727.727,0,0,1,.18-.025.389.389,0,0,1,.292.113.581.581,0,0,1,.128.432l-.2.051a.275.275,0,0,0,.02.224.123.123,0,0,0,.1.041.289.289,0,0,0,.07-.01.373.373,0,0,0,.22-.185,1.185,1.185,0,0,0,.066-.858l-.389-1.5-.4.1-.026-.1,1.745-.452.027.1-.309.08.637,2.461.309-.08.025.1-1.347.348-.139-.536a.775.775,0,0,1-.6.787A.813.813,0,0,1,44.828,48.85Zm-12.963-.268a2.166,2.166,0,0,1-.554-.078c-.638-.171-.949-.537-.832-.98.072-.272.234-.421.457-.421a.574.574,0,0,1,.146.02.453.453,0,0,1,.373.595.785.785,0,0,1-.082.194l-.184-.05a.648.648,0,0,0-.093.191.252.252,0,0,0,.2.34.414.414,0,0,0,.1.014c.268,0,.465-.313.661-1.047l.077-.29a1.33,1.33,0,0,0,.036-.96.5.5,0,0,0-.325-.221.815.815,0,0,0-.212-.029.928.928,0,0,0-.769.549l-.1-.038a1.03,1.03,0,0,1,.974-.658,1.784,1.784,0,0,1,.457.066,1.388,1.388,0,0,1,.9.613,1.415,1.415,0,0,1,.08,1.095,1.44,1.44,0,0,1-.642.93A1.322,1.322,0,0,1,31.865,48.582Zm16.411-.822c-.374,0-.611-.217-.818-.747l-.424-1.093c-.062-.158-.128-.232-.207-.232a.161.161,0,0,0-.058.012c-.124.05-.124.253,0,.639l-.083.025c-.214-.63-.121-.906.368-1.1a1.318,1.318,0,0,1,.465-.1.5.5,0,0,1,.433.213.593.593,0,0,1,.464-.639,1.281,1.281,0,0,1,.453-.1.608.608,0,0,1,.6.44.58.58,0,0,1-.121.666,2.39,2.39,0,0,1-.858.482l-.156.061.161.414c.228.587.352.776.512.776a.27.27,0,0,0,.1-.021.239.239,0,0,0,.168-.313A.5.5,0,0,0,49.177,47l-.134.052a.66.66,0,0,1-.139-.225.423.423,0,0,1,0-.33.537.537,0,0,1,.308-.274.667.667,0,0,1,.237-.05.42.42,0,0,1,.4.317c.135.349-.02.655-.462.91a3.035,3.035,0,0,1-.406.191A2.025,2.025,0,0,1,48.276,47.76Zm-.089-2.677a.154.154,0,0,0-.054.012l-.013.007c-.1.059-.14.284-.017.6l.194.5.038-.014c.224-.086.271-.289.143-.62l-.033-.086C48.326,45.18,48.264,45.083,48.187,45.083ZM29.193,47.717a1.807,1.807,0,0,1-.651-.13,1.106,1.106,0,0,1-.7-1.682l1.519.587.081-.21c.214-.554.335-1.1-.223-1.312a.854.854,0,0,0-.309-.061.931.931,0,0,0-.736.424l-.091-.053a1.04,1.04,0,0,1,.878-.5,1.715,1.715,0,0,1,.608.129,1.329,1.329,0,0,1,.876,1.868,1.46,1.46,0,0,1-.614.772A1.256,1.256,0,0,1,29.193,47.717Zm-.433-1.334-.1.264c-.214.556-.25.769-.026.857a.242.242,0,0,0,.087.017c.166,0,.319-.2.495-.659l.1-.265-.554-.214h0Zm-2.219.209a1.145,1.145,0,0,1-.521-.135,1.336,1.336,0,0,1-.46-.383l-.023-.028a.27.27,0,0,0-.1-.087.144.144,0,0,0-.068-.018.393.393,0,0,0-.2.1l-.058-.029.4-.788.062.032a.96.96,0,0,0,.472,1.083.8.8,0,0,0,.353.1.294.294,0,0,0,.278-.156c.109-.215-.112-.412-.368-.641l-.084-.076c-.36-.322-.718-.716-.41-1.319a.894.894,0,0,1,.812-.552,1.33,1.33,0,0,1,.6.162,1.437,1.437,0,0,1,.541.464.28.28,0,0,0,.077.091.166.166,0,0,0,.077.018.477.477,0,0,0,.243-.1l.06.032-.47.921-.062-.031c.118-.654-.035-1.036-.514-1.281a.9.9,0,0,0-.393-.117.317.317,0,0,0-.3.183c-.111.214.08.388.368.651l.074.068c.379.345.725.729.439,1.288a1.021,1.021,0,0,1-.39.427A.863.863,0,0,1,26.54,46.593Zm24.724-.057a.913.913,0,0,1-.754-.54L49.618,44.5l-.277.167-.054-.089,1.374-.822.053.09-.173.1.964,1.613c.173.289.277.406.359.406a.126.126,0,0,0,.066-.022.283.283,0,0,0,.121-.182,1.019,1.019,0,0,0-.168-.719l-.836-1.4-.179.108-.053-.09,1.274-.763.054.089-.174.1.965,1.612c.173.289.277.407.36.407a.127.127,0,0,0,.066-.022.376.376,0,0,0,.126-.356,1.285,1.285,0,0,0-.192-.574L52.475,42.8,52.3,42.9l-.053-.09,1.373-.821.054.088-.273.164,1.3,2.182.274-.164.054.09-1.2.715-.273-.455a.765.765,0,0,1-.4.923.918.918,0,0,1-.469.147.748.748,0,0,1-.55-.264.846.846,0,0,1-.41.971l-.022.013A.9.9,0,0,1,51.265,46.536ZM24.276,45.313a1.119,1.119,0,0,1-.595-.188,1.351,1.351,0,0,1-.42-.427l-.021-.031a.268.268,0,0,0-.091-.1.144.144,0,0,0-.079-.025.44.44,0,0,0-.194.078l-.054-.034.476-.744.059.037a.96.96,0,0,0,.364,1.123.74.74,0,0,0,.384.138.283.283,0,0,0,.251-.131c.129-.2-.072-.42-.3-.673l-.077-.084c-.326-.356-.644-.783-.282-1.353a.911.911,0,0,1,.773-.474,1.257,1.257,0,0,1,.67.224,1.421,1.421,0,0,1,.494.513.264.264,0,0,0,.068.1.171.171,0,0,0,.1.026.52.52,0,0,0,.229-.072l.059.037-.556.872-.059-.038a1.028,1.028,0,0,0-.389-1.324.826.826,0,0,0-.421-.156.313.313,0,0,0-.277.156c-.131.2.043.4.307.688l.064.071c.344.38.651.8.314,1.324a1.031,1.031,0,0,1-.354.348A.86.86,0,0,1,24.276,45.313ZM56.447,44.9a.5.5,0,0,1-.4-.222.544.544,0,0,1-.129-.388.594.594,0,0,1,.258-.4.637.637,0,0,1,.383-.154.592.592,0,0,1,.526.613.609.609,0,0,1-.261.4.845.845,0,0,1-.1.07A.559.559,0,0,1,56.447,44.9Zm-.93-1h0L53.9,41.81l-.256.2-.064-.083,1.355-1.05.064.084-.251.194L56.3,43.16l.27-.209.063.084-1.116.865Zm1.376-1.182a.611.611,0,0,1-.445-.225.478.478,0,0,1-.019-.733.531.531,0,0,1,.351-.165c.167,0,.314.116.424.336l-.153.142c.039.128.094.194.164.194a.194.194,0,0,0,.125-.061.371.371,0,0,0,.106-.266,1.182,1.182,0,0,0-.35-.785l-1.053-1.133-.3.279-.071-.075L56.991,39l.07.077-.231.216,1.73,1.86.233-.217.07.077-1.019.949-.377-.406a.775.775,0,0,1-.15.975.856.856,0,0,1-.149.112A.543.543,0,0,1,56.893,42.719ZM38.8,41.286h0a20.05,20.05,0,0,1-12.164-4.133l.306-.176.465-.268,1.247-.721.472-.273.319-.184L55.625,20.417l.319-.184.472-.273,1.247-.72.465-.269.306-.176A19.839,19.839,0,0,1,38.8,41.286ZM59.973,41.1a1.073,1.073,0,0,1-.691-.292c-.664-.557-.587-1.225.257-2.235l.03-.035-1.187-1-.464.555-.085-.07,1.428-1.706.084.07-.24.289,2.934,2.455.24-.289.084.072-1.09,1.3a3.171,3.171,0,0,1-.792.729A1.007,1.007,0,0,1,59.973,41.1Zm-.32-2.492-.077.093a.5.5,0,0,0-.121.536,1.6,1.6,0,0,0,.5.58l.213.178a1.141,1.141,0,0,0,.659.349.51.51,0,0,0,.389-.225l.1-.119ZM16.306,37.4h0l-5.663-4.709-.4.23-.1-.165,2.831-1.634.1.164-.615.356,3.955,3.49-.994-5.2-.675.39-.094-.165,1.325-.765.1.165-.407.235,1.367,7.189-.727.42Zm45.976-.644h0l-.09-.052.2-.352-.166-.885-2.2-.1-.1.182-.09-.052.8-1.394.091.051-.132.23,1.488.1.03-.109-1.139-.649-.131.229-.09-.051.82-1.439.091.051-.158.275,3.582,2.043.169-.3.09.051-.7,1.23-2.433-1.388-.016.1.294,1.664.27-.472.09.052-.563.987ZM19.759,35a2.277,2.277,0,0,1-1.977-1.3,2.414,2.414,0,0,1-.286-2.022,2.708,2.708,0,0,1,1.266-1.42,2.677,2.677,0,0,1,1.308-.414,1.975,1.975,0,0,1,1.72,1.3l-2.442,1.41.2.338c.371.642.831,1.3,1.44,1.3a1.138,1.138,0,0,0,.572-.173,1.493,1.493,0,0,0,.644-1.8l.171-.065a1.952,1.952,0,0,1-1.12,2.4A3.016,3.016,0,0,1,19.759,35Zm-.767-4.6h0a.425.425,0,0,0-.213.065c-.328.19-.258.633.233,1.483l.245.424.891-.515-.245-.424c-.4-.686-.645-1.034-.911-1.034Zm4.4,2.8h0l-.09-.155.476-.275-2.2-3.811-.476.275-.09-.156L23.1,27.869l.481.832a1.34,1.34,0,0,1,.63-1.588,1.194,1.194,0,0,1,.6-.178.994.994,0,0,1,.857.575.827.827,0,0,1-.252,1.243,1.033,1.033,0,0,1-.51.157c-.355,0-.615-.265-.731-.745l.311-.18c-.018-.264-.1-.4-.247-.4a.39.39,0,0,0-.189.06c-.428.248-.426,1.121.005,1.868l1.34,2.321L26,31.48l.09.156-2.7,1.56Zm40.51-.338a1.63,1.63,0,0,1-.6-.145L62.22,32.27a.552.552,0,0,0-.2-.05.135.135,0,0,0-.14.093c-.051.123.1.262.463.437l-.038.078c-.606-.277-.743-.534-.544-1.021.16-.392.362-.582.619-.582a.548.548,0,0,1,.079.006.591.591,0,0,1-.143-.776c.16-.393.385-.592.669-.592a.8.8,0,0,1,.3.065c.549.225.461.763.16,1.5l-.064.154.411.169a2.335,2.335,0,0,0,.743.224.214.214,0,0,0,.224-.147.241.241,0,0,0-.112-.339.516.516,0,0,0-.167-.031l-.055.133a.666.666,0,0,1-.258-.056.422.422,0,0,1-.236-.229.536.536,0,0,1,.012-.411.439.439,0,0,1,.405-.327.606.606,0,0,1,.226.049.583.583,0,0,1,.335.316,2.106,2.106,0,0,1-.669,1.838A.654.654,0,0,1,63.9,32.859Zm-1.414-2.03a.119.119,0,0,0-.061.014.122.122,0,0,0-.049.064c-.039.095.066.294.419.439l.5.2.015-.038c.091-.222-.024-.4-.351-.53l-.086-.035A1.251,1.251,0,0,0,62.488,30.828Zm-34.81-.107h0l-.089-.155.477-.275-2.2-3.811-.51.3-.09-.156,2.121-1.225,2.291,3.966.484-.28.09.156-2.571,1.485Zm36.947-.676a2.052,2.052,0,0,1-.541-.082,1.531,1.531,0,0,1-.958-.627,1.484,1.484,0,0,1-.067-1.179,1.28,1.28,0,0,1,1.247-1.1,1.921,1.921,0,0,1,.509.075,1.338,1.338,0,0,1,.992,1.826,1.487,1.487,0,0,1-.625.951A1.1,1.1,0,0,1,64.626,30.045ZM63.5,27.975a.435.435,0,0,0-.22.048.311.311,0,0,0-.111.388c.1.171.421.267.942.411l.472.131a3.416,3.416,0,0,0,.793.16c.189,0,.3-.064.333-.2.091-.332-.3-.467-.964-.651l-.435-.121A3.479,3.479,0,0,0,63.5,27.975ZM30.425,29.137h0l-.09-.155.476-.275-2.2-3.811-.5.29-.09-.156.5-.29-.01-.017c-.951-1.647-.524-3.1,1.2-4.1a2.43,2.43,0,0,1,1.185-.363,1.1,1.1,0,0,1,.993.515.793.793,0,0,1-.3,1.178,1,1,0,0,1-.495.149.651.651,0,0,1-.578-.348,1.807,1.807,0,0,1-.163-.4l.3-.3a.412.412,0,0,0-.42-.4,1.117,1.117,0,0,0-.52.168,1.1,1.1,0,0,0-.589.7,1.292,1.292,0,0,0,.209.9l.8,1.386,2.85-1.645,2.29,3.966.485-.28.09.156L33.36,27.441l-.09-.156.39-.225-2.2-3.811-1.238.715,2.2,3.811.554-.32.09.157-2.641,1.524Zm37.389-2.02h0l-4.159-.739-.056.318-.1-.018.3-1.688.1.018-.056.312,4.057.721.06-.335.1.018-.247,1.391ZM25.657,25.439a.869.869,0,0,1-.744-.487.923.923,0,0,1-.126-.676,1.042,1.042,0,0,1,.546-.64,1.186,1.186,0,0,1,.585-.18.832.832,0,0,1,.731.482.94.94,0,0,1,.131.7,1.032,1.032,0,0,1-.535.623A1.193,1.193,0,0,1,25.657,25.439Zm11.2-.305a2.277,2.277,0,0,1-1.977-1.3,2.413,2.413,0,0,1-.286-2.022,2.706,2.706,0,0,1,1.266-1.419,2.675,2.675,0,0,1,1.308-.415,1.975,1.975,0,0,1,1.72,1.3l-2.442,1.409.2.338c.525.91.956,1.3,1.44,1.3a1.135,1.135,0,0,0,.572-.173,1.5,1.5,0,0,0,.644-1.8l.17-.064a1.929,1.929,0,0,1-1.119,2.4A3.016,3.016,0,0,1,36.854,25.134Zm-.766-4.6a.427.427,0,0,0-.214.066.374.374,0,0,0-.187.234c-.065.243.068.64.419,1.248l.245.424.893-.515L37,21.565C36.6,20.88,36.354,20.532,36.088,20.532Zm31.831,4.306h0L66.665,24.8l.007-.1c.611-.228,1.239-.533,1.273-1.082a.716.716,0,0,0-.371-.691,2.907,2.907,0,0,0-1.295-.313l-.455-.029c-.11-.007-.218-.011-.32-.011-.925,0-1.453.3-1.488.832-.028.426.351.833,1.159,1.244l-.007.1-1.283-.124,0-.062c.078-.036.121-.055.127-.148a1.16,1.16,0,0,0-.036-.268,3.141,3.141,0,0,1-.071-.891,1.758,1.758,0,0,1,1.924-1.849c.073,0,.15,0,.227.008a2.226,2.226,0,0,1,1.554.654,1.952,1.952,0,0,1,.45,1.473,2.675,2.675,0,0,1-.176.8,1.03,1.03,0,0,0-.072.262c-.006.092.036.119.105.163l0,.062ZM12,24.552H10.886l-.166-2.421.1-.007,2.63,1.194-.006-.076c-.043-.635-.378-.96-1.158-1.12l-.005-.081,1.187.013.165,2.421-.086.005L10.9,23.265l.005.063c.052.772.235.965,1.085,1.149l0,.074Zm7.092-.473h0A19.852,19.852,0,0,1,50.888,5.72l-.306.176-.466.269-1.246.72-.472.273-.319.184L21.9,22.458l-.319.184-.472.273-1.248.721-.465.268-.3.176ZM38.7,4.213a17.2,17.2,0,0,0-8.262,2.142A17.2,17.2,0,0,1,38.7,4.213Zm0-1.8a18.992,18.992,0,0,0-9.456,2.545A19,19,0,0,1,38.7,2.409Zm2.619,20.3c-.7,0-1.369-.514-1.93-1.486-.826-1.432-.668-2.49.469-3.147a1.7,1.7,0,0,1,.822-.267.847.847,0,0,1,.428.112l-1.475-2.555-.527.305-.09-.157,2.165-1.249,3.659,6.339.425-.245.09.156-1.922,1.111-.445-.552a1.3,1.3,0,0,1-.795,1.382A1.742,1.742,0,0,1,41.32,22.711Zm-.591-4.723a.511.511,0,0,0-.258.071c-.434.251-.191.848.48,2.01l.26.451c.562.974.843,1.3,1.114,1.3a.458.458,0,0,0,.231-.072c.24-.139.461-.583.084-1.237l-1.09-1.888A1.082,1.082,0,0,0,40.729,17.988ZM11.692,21.462c-.075,0-.152,0-.231-.008A2.226,2.226,0,0,1,9.907,20.8a1.95,1.95,0,0,1-.451-1.473,2.713,2.713,0,0,1,.178-.809,1.052,1.052,0,0,0,.072-.258c.005-.093-.034-.118-.105-.163l0-.064,1.254.035-.006.1c-.865.321-1.246.644-1.274,1.081-.038.6.507.93,1.667,1.005l.455.03c.109.007.215.011.316.011.927,0,1.456-.3,1.491-.832.027-.426-.352-.833-1.159-1.245l.007-.1,1.283.122,0,.063c-.077.037-.119.057-.125.148a1.147,1.147,0,0,0,.035.269,3.137,3.137,0,0,1,.071.89,1.842,1.842,0,0,1-.843,1.595A2.129,2.129,0,0,1,11.692,21.462Zm53.547-.631h0l-1.187-.013-.164-2.42.086-.006,2.649,1.216-.005-.064c-.051-.769-.234-.962-1.085-1.147l-.006-.076h1.113l.164,2.42-.1.008-2.63-1.194.005.074c.044.644.369.959,1.159,1.121l.005.08Zm-18.005-1.4h0l-.109-.189.51-.294-3.28-5.682-.51.3-.111-.191,4.5-2.6,1.127,1.75-.156.09a2.651,2.651,0,0,0-1.706-.863,2.436,2.436,0,0,0-1.216.4l-.242.14L47.669,15.1l.39-.225c.538-.311.691-.951.419-1.755l.13-.075,1.48,2.563-.148.085c-.475-.521-.849-.754-1.216-.754a1.062,1.062,0,0,0-.535.161l-.39.225,1.525,2.642,1.075-.62.11.191-3.273,1.889ZM13.728,17.883h0l-.1-.019.056-.311-4.058-.721-.059.336-.1-.019.248-1.392,4.159.74.056-.319.1.018-.3,1.687ZM52.266,16.4a1.066,1.066,0,0,1-.945-.611,1,1,0,0,1,.032-1.172,4.129,4.129,0,0,1,1.34-1.052l.251-.145-.385-.668c-.516-.893-.775-1.194-1.03-1.194a.42.42,0,0,0-.21.065.546.546,0,0,0-.253.3.364.364,0,0,0,.046.283.893.893,0,0,0,.2.22l.216-.125a1.182,1.182,0,0,1,.3.349.727.727,0,0,1,.064.617.953.953,0,0,1-.437.5,1.029,1.029,0,0,1-.506.158.755.755,0,0,1-.654-.446c-.408-.707-.006-1.418,1.2-2.111a2.943,2.943,0,0,1,1.387-.495c.527,0,.939.324,1.377,1.082l1.015,1.758c.133.231.258.344.381.344a.255.255,0,0,0,.13-.039c.2-.116.147-.463-.167-1.092l.134-.067c.535,1.021.449,1.519-.338,1.974a1.973,1.973,0,0,1-.944.313.83.83,0,0,1-.621-.264,1.026,1.026,0,0,1-.625,1.216A1.94,1.94,0,0,1,52.266,16.4Zm.757-2.841-.06.035c-.361.208-.388.567-.082,1.1l.08.139c.267.462.4.617.522.617a.224.224,0,0,0,.113-.037.376.376,0,0,0,.128-.352,1.545,1.545,0,0,0-.235-.7l-.465-.806ZM13.215,15.818a1.928,1.928,0,0,1-.51-.075,1.338,1.338,0,0,1-.991-1.826c.2-.733.591-1.09,1.185-1.09a2.04,2.04,0,0,1,.537.081,1.292,1.292,0,0,1,1.026,1.806,1.5,1.5,0,0,1-.645.952A1.189,1.189,0,0,1,13.215,15.818ZM12.143,13.76a.433.433,0,0,0-.219.047.245.245,0,0,0-.114.154.273.273,0,0,0,.021.217c.107.19.459.3.943.433l.433.12a3.49,3.49,0,0,0,.813.167c.194,0,.3-.071.346-.223s-.009-.262-.174-.356a3.909,3.909,0,0,0-.784-.268l-.472-.131A3.406,3.406,0,0,0,12.143,13.76Zm44.4.3h0l-.09-.155.476-.274L53.36,7.443l-.511.294-.09-.156,2.122-1.225L58.541,12.7l.485-.28.09.156-2.571,1.484Zm-42-1.047a.8.8,0,0,1-.3-.065c-.551-.225-.463-.763-.161-1.5l.064-.156-.41-.168a2.343,2.343,0,0,0-.745-.225.213.213,0,0,0-.223.147.313.313,0,0,0-.01.224.21.21,0,0,0,.121.114.479.479,0,0,0,.168.031l.055-.133a.658.658,0,0,1,.257.056.42.42,0,0,1,.236.228.538.538,0,0,1-.011.413.44.44,0,0,1-.405.328.607.607,0,0,1-.227-.05.582.582,0,0,1-.38-.49,1.854,1.854,0,0,1,.18-.9c.251-.614.5-.854.872-.854a1.627,1.627,0,0,1,.6.145L15.3,10.6a.558.558,0,0,0,.2.05.136.136,0,0,0,.14-.092c.051-.123-.1-.263-.464-.439l.039-.077c.6.277.742.535.544,1.021-.161.392-.363.582-.618.582a.54.54,0,0,1-.08-.006.592.592,0,0,1,.143.776,1.009,1.009,0,0,1-.392.518A.548.548,0,0,1,14.539,13.009Zm-.311-1.685-.015.037a.3.3,0,0,0,.019.3.7.7,0,0,0,.332.231l.085.034a1.241,1.241,0,0,0,.386.118.1.1,0,0,0,.109-.078.146.146,0,0,0-.007-.112.745.745,0,0,0-.412-.327Zm45.3,1.123h0l-.9-1.549.1-.06a2.2,2.2,0,0,0,1.463.727,1.75,1.75,0,0,0,.881-.267,1.377,1.377,0,0,0,.591-.552.541.541,0,0,0-.032-.521.472.472,0,0,0-.458-.239,3.761,3.761,0,0,0-.85.166l-.154.04a4.107,4.107,0,0,1-1.007.165,1.374,1.374,0,0,1-1.277-.74,1.635,1.635,0,0,1,.68-2.344,2.31,2.31,0,0,1,.99-.305l.068-.008a.458.458,0,0,0,.214-.062c.132-.077.15-.183.138-.462l.1-.055.765,1.326-.1.059a2.09,2.09,0,0,0-1.278-.549,1.456,1.456,0,0,0-.741.213c-.5.291-.7.652-.515.968a.478.478,0,0,0,.461.229,3.483,3.483,0,0,0,.819-.161l.186-.05a3.758,3.758,0,0,1,.96-.159,1.458,1.458,0,0,1,1.342.8,1.619,1.619,0,0,1,.2,1.366,2.03,2.03,0,0,1-.963,1.049,2.457,2.457,0,0,1-1.184.349H59.99a.429.429,0,0,0-.169.027c-.129.075-.188.245-.187.535l-.1.059ZM15.956,10.411h0l-.09-.05.158-.275L12.441,8.042l-.169.3-.09-.052.7-1.229,2.434,1.388.015-.1-.294-1.665-.269.473-.09-.052.563-.988.092.051-.2.351L15.3,7.4l2.2.1.1-.181.09.051-.8,1.4L16.8,8.72l.132-.231-1.489-.1-.029.109,1.139.65.131-.229.09.05-.82,1.438Zm47.919-.877A2.277,2.277,0,0,1,61.9,8.23a2.414,2.414,0,0,1-.286-2.022,2.708,2.708,0,0,1,1.266-1.42,2.677,2.677,0,0,1,1.308-.414,1.975,1.975,0,0,1,1.72,1.3l-2.442,1.41.2.337c.371.642.831,1.3,1.44,1.3a1.138,1.138,0,0,0,.572-.173,1.493,1.493,0,0,0,.643-1.8l.171-.065a1.952,1.952,0,0,1-1.119,2.4A3.016,3.016,0,0,1,63.875,9.534Zm-.767-4.6h0A.425.425,0,0,0,62.895,5c-.328.19-.258.633.233,1.483l.245.424.891-.515-.245-.424c-.4-.686-.645-1.034-.911-1.034ZM18.262,6.547h0l-.084-.07.241-.288L15.485,3.734l-.241.288-.084-.071,1.09-1.3c.509-.608.91-.879,1.3-.879a1.076,1.076,0,0,1,.692.292,1.1,1.1,0,0,1,.439.75,2.2,2.2,0,0,1-.7,1.483l-.03.036,1.188.995.463-.554.085.071-1.428,1.7ZM16.7,2.526a.388.388,0,0,0-.2.055.724.724,0,0,0-.192.169l-.1.12L17.87,4.261l.077-.093c.327-.392.1-.717-.378-1.116l-.212-.177a1.141,1.141,0,0,0-.659-.349Zm3.834,1.348h0l-.07-.075.232-.216-1.73-1.861-.234.217-.069-.077L19.679.914l.376.406a.775.775,0,0,1,.151-.976.629.629,0,0,1,.423-.19.612.612,0,0,1,.446.226.578.578,0,0,1,.179.408.465.465,0,0,1-.161.324.53.53,0,0,1-.351.164c-.168,0-.314-.116-.423-.335L20.471.8C20.433.67,20.378.6,20.308.6a.2.2,0,0,0-.125.062.373.373,0,0,0-.106.268,1.18,1.18,0,0,0,.35.782L21.48,2.85l.3-.279.071.077L20.532,3.873ZM22.59,2h0l-.063-.082.25-.194L21.444,0H22.8l.823,1.062.255-.2.065.083L22.591,2ZM23.906.881h0L23.853.793l.272-.164L23.748,0H25l.046.077L25.178,0h.065l.035.06-1.373.82ZM53.056.443A1.251,1.251,0,0,1,52.388.22,1.482,1.482,0,0,1,52.114,0H52.3a1.389,1.389,0,0,0,.146.106.825.825,0,0,0,.422.157.312.312,0,0,0,.277-.156A.272.272,0,0,0,53.187,0h.622a1.062,1.062,0,0,1-.345.334A.807.807,0,0,1,53.056.443Z" transform="translate(0)"/></svg>