<svg xmlns="http://www.w3.org/2000/svg" width="75.716" height="70.054" viewBox="0 0 75.716 70.054"><defs><style>.a{fill:#e17726;stroke:#e17726;}.a,.b,.c,.d,.e,.f,.g,.h,.i,.j{stroke-linecap:round;stroke-linejoin:round;stroke-width:0.25px;}.b{fill:#e27625;stroke:#e27625;}.c{fill:#d5bfb2;stroke:#d5bfb2;}.d{fill:#233447;stroke:#233447;}.e{fill:#cc6228;stroke:#cc6228;}.f{fill:#e27525;stroke:#e27525;}.g{fill:#f5841f;stroke:#f5841f;}.h{fill:#c0ac9d;stroke:#c0ac9d;}.i{fill:#161616;stroke:#161616;}.j{fill:#763e1a;stroke:#763e1a;}</style></defs><g transform="translate(0.125 0.125)"><path class="a" d="M49.3,1,19.824,22.814,25.306,9.958Z" transform="translate(22.428 -1)"/><g transform="translate(0.612 0)"><path class="b" d="M2.663,1,31.881,23.017,26.662,9.958Z" transform="translate(0.457 -1)"/><path class="b" d="M32.579,23.534,24.735,35.516l16.8,4.625L46.342,23.8Z" transform="translate(27.928 27.045)"/><path class="b" d="M1.273,23.8,6.055,40.141l16.767-4.625L15.007,23.533Z" transform="translate(-1.273 27.045)"/><path class="b" d="M13.058,20.111,8.392,27.15l16.621.756-.554-17.887Z" transform="translate(7.588 10.224)"/><path class="b" d="M31.78,20.224,20.2,9.928l-.379,18.091,16.621-.756Z" transform="translate(21.816 10.112)"/><path class="b" d="M10.873,35.307l10.06-4.857L12.273,23.7Z" transform="translate(10.676 27.255)"/><path class="b" d="M20.266,30.45,30.3,35.307l-1.37-11.6Z" transform="translate(22.366 27.255)"/></g><path class="c" d="M30.3,31.565,20.266,26.708l.817,6.515-.088,2.763Z" transform="translate(22.978 30.996)"/><path class="c" d="M10.873,31.565,20.2,35.986l-.058-2.763.787-6.515Z" transform="translate(11.288 30.996)"/><path class="d" d="M19.733,24.639,11.393,22.2l5.89-2.7Z" transform="translate(11.935 22.013)"/><path class="d" d="M20.513,24.639l2.45-5.148,5.919,2.7Z" transform="translate(23.285 22.013)"/><path class="e" d="M15.207,35.516l1.458-11.983L7.392,23.8Z" transform="translate(6.955 27.045)"/><path class="e" d="M24.1,23.534l1.429,11.983L33.371,23.8Z" transform="translate(27.748 27.045)"/><path class="e" d="M36.445,17.651l-16.621.756,1.545,8.522,2.45-5.148,5.919,2.7Z" transform="translate(22.428 19.723)"/><path class="e" d="M15.128,24.486l5.89-2.7,2.45,5.148,1.545-8.522L8.392,17.651Z" transform="translate(8.2 19.723)"/><path class="f" d="M8.392,17.651l6.969,13.583-.233-6.748Z" transform="translate(8.2 19.723)"/><path class="f" d="M24.387,24.486l-.262,6.748,6.969-13.583Z" transform="translate(27.78 19.723)"/><path class="f" d="M16.654,17.988,15.108,26.51l1.954,10.063L17.5,23.31Z" transform="translate(16.559 20.143)"/><path class="f" d="M20.277,17.988l-.817,5.294.408,13.292L21.822,26.51Z" transform="translate(21.976 20.143)"/><path class="g" d="M21.6,23.139,19.642,33.2l1.4.989L29.7,27.443l.262-6.748Z" transform="translate(22.202 23.513)"/><path class="g" d="M11.393,20.7l.233,6.748,8.66,6.748,1.4-.989L19.733,23.139Z" transform="translate(11.935 23.513)"/><path class="h" d="M32.685,33.293l.088-2.763-.758-.64H20.875l-.729.64.058,2.763-9.331-4.421,3.266,2.676,6.619,4.566H32.1l6.648-4.566,3.237-2.676Z" transform="translate(11.288 33.689)"/><path class="i" d="M26.814,27.257l-1.4-.989H17.192l-1.4.989L15,33.772l.729-.64H26.872l.758.64Z" transform="translate(16.43 30.448)"/><path class="j" d="M50.009,24.239,52.487,12.2,48.755,1,20.266,22.087,31.23,31.335l15.484,4.508,3.412-3.985-1.487-1.076L51,28.631l-1.808-1.4,2.362-1.8Z" transform="translate(22.978 -1)"/><path class="j" d="M1,12.2,3.508,24.239,1.9,25.431l2.391,1.8-1.808,1.4,2.362,2.152L3.362,31.859l3.412,3.985,15.484-4.508,10.964-9.249L4.732,1Z" transform="translate(-1 -1)"/><path class="g" d="M41.912,19.023,26.428,14.515l4.666,7.039L24.124,35.136l9.214-.116H47.1Z" transform="translate(27.78 15.821)"/><path class="g" d="M21.918,14.515,6.434,19.023l-5.161,16H15.007l9.214.116L17.252,21.553Z" transform="translate(-0.66 15.821)"/><path class="g" d="M27.876,34.163l.991-17.044L33.358,4.991h-20l4.491,12.128.991,17.044.379,5.352.029,13.234h8.223L27.5,39.515Z" transform="translate(14.376 3.967)"/></g></svg>