<svg xmlns="http://www.w3.org/2000/svg" width="43.981" height="46.77" viewBox="0 0 43.981 46.77">
  <g id="icon_logo" transform="translate(4.23 2.181)">
    <g id="组_249" data-name="组 249" transform="translate(-4.23 -2.181)">
      <path id="路径_796" data-name="路径 796" d="M180.034,1046.14a12.563,12.563,0,0,1,17.516,3.9l9.375-5.412a23.489,23.489,0,0,0-8.835-8.478A30.111,30.111,0,0,0,180.034,1046.14Z" transform="translate(-162.945 -1033.292)" fill="#6768ac"/>
      <path id="路径_797" data-name="路径 797" d="M141.123,1072.486a.392.392,0,0,1,.469-.486,14.943,14.943,0,0,0,8.762-.411,12.752,12.752,0,0,0,1.853-.865c-.737-.492-3.523-1.5-13.378,0-.442.065-1.523.215-2.445.249a12.094,12.094,0,0,1,3.141,6.309A5.529,5.529,0,0,0,141.123,1072.486Z" transform="translate(-136.383 -1053.848)" fill="#6768ac"/>
      <path id="路径_798" data-name="路径 798" d="M141.338,1044.942a46.992,46.992,0,0,1,10.879-.707A32.217,32.217,0,0,1,163.06,1034a31.87,31.87,0,0,1,8.729-3.422,23.392,23.392,0,0,0-31.09,14.451C140.915,1045,141.13,1044.973,141.338,1044.942Z" transform="translate(-139.009 -1028.845)" fill="#6768ac"/>
      <path id="路径_799" data-name="路径 799" d="M229.784,1107.527a3.794,3.794,0,0,0-1.547-2.514c-.117-.076-.234-.149-.351-.221a2.044,2.044,0,0,0-1.384-.272q-.277.044-.569.1l.012.005c-.137.022-.27.048-.4.073-.36.078-.74.17-1.143.278a11.181,11.181,0,0,0-3.379,1.683,4.694,4.694,0,0,0-1.523,1.606,1.431,1.431,0,0,0-.1.571,3.92,3.92,0,0,0,.2.993,4.037,4.037,0,0,1,.08,2.558,6.788,6.788,0,0,1-.573,1.354,1.961,1.961,0,0,0-.094,2.226c.164.325.324.611.465.863a4.419,4.419,0,0,1,.79,2.748.387.387,0,0,0,.264.131h.03a.392.392,0,0,0,.391-.361,4,4,0,0,0-.8-2.666c-.143-.237-.305-.507-.471-.811a1.684,1.684,0,0,1,.1-2.049,6.268,6.268,0,0,0,.583-1.28,3.58,3.58,0,0,0-.081-2.433,3.418,3.418,0,0,1-.205-.921,1.36,1.36,0,0,1,.258-.816.339.339,0,0,0,.073.031l7.617,2.412a.4.4,0,0,0,.118.018.39.39,0,0,0,.282-.12A4.025,4.025,0,0,0,229.784,1107.527Zm-1.765,2.466-7.109-2.249c.183-.161.38-.311.574-.454a10.4,10.4,0,0,1,3.618-1.694,12.333,12.333,0,0,1,1.644-.288,1.225,1.225,0,0,1,.785.186c.09.055.181.113.271.171a3.039,3.039,0,0,1,1.2,1.948A3.149,3.149,0,0,1,228.019,1109.993Z" transform="translate(-186.479 -1074.879)" fill="#6768ac"/>
      <path id="路径_800" data-name="路径 800" d="M148.744,1083.567c.069.01.139.02.208.034a7.736,7.736,0,0,1,2.816,1.036,15.427,15.427,0,0,1,1.415,1.029c.564.4,1.1.791,1.584,1.131a9.473,9.473,0,0,0,3.827,1.428l.007.012a19.733,19.733,0,0,0,5.268-.167c5.254-.708,8.647-.637,11.553.389.485-.12.942-.221,1.371-.3-3.29-1.487-6.964-1.686-13.03-.868-2.511.339-5.4.592-7.9-.7a12.947,12.947,0,0,1-2.06-1.427,17.679,17.679,0,0,0-1.626-1.189,8.108,8.108,0,0,0-2.112-.923l-.012,0c-.124-.035-.25-.065-.377-.1l-.14-.033c-.3-.067-.613-.121-.935-.16v-.022a13.938,13.938,0,0,0-8.287,1.1.393.393,0,0,1-.506-.11.384.384,0,0,1-.067-.172h-.005a13.234,13.234,0,0,0-1.637-4.764,23.4,23.4,0,0,0,32.115,25.4,3.64,3.64,0,0,0-.667-2.621c-.145-.26-.31-.554-.481-.894a4.123,4.123,0,0,1-.266-.657,27.107,27.107,0,0,1-6.8.956,15.341,15.341,0,0,1-8.056-2.062,13.556,13.556,0,0,1-5.986-7.865.392.392,0,1,1,.763-.179,13,13,0,0,0,5.638,7.379c3.659,2.2,8.478,2.532,14.321.993h0a3.25,3.25,0,0,1,.485-1.5,6.14,6.14,0,0,0,.514-1.206,3.289,3.289,0,0,0-.077-2.121,4.6,4.6,0,0,1-.237-1.187c-.049-1.305,1.088-2.209,1.7-2.695a10.68,10.68,0,0,1,1.877-1.192c-.094,0-.176.013-.21.017-.356.038-.717.076-1.08.113a17.732,17.732,0,0,0-2.4.381,13.408,13.408,0,0,0-3.214,1.052,33.306,33.306,0,0,1-3.139,1.486,10.747,10.747,0,0,1-4.693.717,8.67,8.67,0,0,1-1.542-.3,11.572,11.572,0,0,1-3.751-1.629,8.738,8.738,0,0,1-1.548-1.408,9.654,9.654,0,0,1-1-1.055,6.947,6.947,0,0,1-.522-.745,9.52,9.52,0,0,0-1.775-1.671,9.783,9.783,0,0,0-5.172-1.551,4.489,4.489,0,0,1,1.886,3.1,13.67,13.67,0,0,1,.082,4.255c-.061.717-.124,1.459-.122,2.168a9.036,9.036,0,0,0,1.158,4.965q-.8-.723-1.514-1.517a12.638,12.638,0,0,1-.428-3.446c0-.742.062-1.5.125-2.238a13.093,13.093,0,0,0-.065-4.01c-.236-1.018-.832-2.733-2.181-2.772a1.846,1.846,0,0,0-.295.019,2.932,2.932,0,0,0-2.31,2.241.375.375,0,0,1-.063.141q-.154-.693-.263-1.4a3.463,3.463,0,0,1,1.832-1.591,14.262,14.262,0,0,1,7.684-1.135" transform="translate(-137.237 -1059.237)" fill="#6768ac"/>
      <path id="路径_801" data-name="路径 801" d="M160.294,1072.048a.269.269,0,0,0,0-.037s0-.007,0-.01a14.536,14.536,0,0,1-11.656,2.144,6.373,6.373,0,0,1-1.3,4.213,15.279,15.279,0,0,1,9.441,0v0s.169.044.335.1a9.823,9.823,0,0,0,3.183-6.413Z" transform="translate(-143.051 -1055.105)" fill="#6768ac"/>
    </g>
  </g>
</svg>
