<svg xmlns="http://www.w3.org/2000/svg" width="32.25" height="29.849" viewBox="0 0 32.25 29.849"><defs><style>.a{fill:#e17726;stroke:#e17726;}.a,.b,.c,.d,.e,.f,.g,.h,.i,.j{stroke-linecap:round;stroke-linejoin:round;stroke-width:0.25px;}.b{fill:#e27625;stroke:#e27625;}.c{fill:#d5bfb2;stroke:#d5bfb2;}.d{fill:#233447;stroke:#233447;}.e{fill:#cc6228;stroke:#cc6228;}.f{fill:#e27525;stroke:#e27525;}.g{fill:#f5841f;stroke:#f5841f;}.h{fill:#c0ac9d;stroke:#c0ac9d;}.i{fill:#161616;stroke:#161616;}.j{fill:#763e1a;stroke:#763e1a;}</style></defs><g transform="translate(-0.875 -0.875)"><path class="a" d="M32.325,1l-12.5,9.25L22.149,4.8Z" transform="translate(-0.908)"/><g transform="translate(1.26 1)"><path class="b" d="M2.663,1l12.389,9.336L12.839,4.8Z" transform="translate(-1.34 -1)"/><path class="b" d="M28.061,23.534l-3.326,5.081,7.122,1.961,2.04-6.931Z" transform="translate(-2.404 -2.086)"/><path class="b" d="M1.273,23.644,3.3,30.576l7.11-1.961L7.1,23.534Z" transform="translate(-1.273 -2.086)"/><path class="b" d="M10.37,14.3,8.392,17.283l7.048.321L15.2,10.019Z" transform="translate(-1.616 -1.435)"/><path class="b" d="M24.894,14.294,19.985,9.928,19.824,17.6l7.048-.321Z" transform="translate(-2.167 -1.43)"/><path class="b" d="M10.873,28.623l4.266-2.06L11.467,23.7Z" transform="translate(-1.736 -2.095)"/><path class="b" d="M20.266,26.563l4.253,2.06L23.938,23.7Z" transform="translate(-2.189 -2.095)"/></g><path class="c" d="M24.519,28.768l-4.254-2.06.346,2.763-.037,1.172Z" transform="translate(-0.929 -1.24)"/><path class="c" d="M10.873,28.768l3.957,1.875-.025-1.172.334-2.763Z" transform="translate(-0.476 -1.24)"/><path class="d" d="M14.929,21.674l-3.536-1.036,2.5-1.147Z" transform="translate(-0.501 -0.892)"/><path class="d" d="M20.513,21.674l1.039-2.183,2.51,1.147Z" transform="translate(-0.941 -0.892)"/><path class="e" d="M10.705,28.615l.618-5.081-3.932.111Z" transform="translate(-0.308 -1.086)"/><path class="e" d="M24.1,23.534l.606,5.081,3.326-4.97Z" transform="translate(-1.114 -1.086)"/><path class="e" d="M26.872,17.651l-7.048.321.655,3.614L21.518,19.4l2.51,1.147Z" transform="translate(-0.908 -0.803)"/><path class="e" d="M11.248,20.549l2.5-1.147,1.039,2.183.655-3.614-7.048-.321Z" transform="translate(-0.356 -0.803)"/><path class="f" d="M8.392,17.651l2.955,5.76-.1-2.861Z" transform="translate(-0.356 -0.803)"/><path class="f" d="M24.236,20.549l-.111,2.861,2.955-5.76Z" transform="translate(-1.115 -0.803)"/><path class="f" d="M15.764,17.988,15.108,21.6l.828,4.267.186-5.624Z" transform="translate(-0.68 -0.819)"/><path class="f" d="M19.807,17.988l-.346,2.245.173,5.636.828-4.267Z" transform="translate(-0.89 -0.819)"/><path class="g" d="M20.471,21.732,19.642,26l.594.419,3.672-2.861.111-2.861Z" transform="translate(-0.899 -0.95)"/><path class="g" d="M11.393,20.7l.1,2.861,3.672,2.861L15.758,26l-.828-4.267Z" transform="translate(-0.501 -0.95)"/><path class="h" d="M20.122,30.747l.037-1.172-.322-.271H15.114l-.309.271.025,1.172-3.957-1.875,1.385,1.135,2.807,1.936h4.81l2.819-1.936,1.372-1.135Z" transform="translate(-0.476 -1.344)"/><path class="i" d="M20.012,26.687l-.594-.419H15.932l-.594.419L15,29.45l.309-.271h4.723l.322.271Z" transform="translate(-0.675 -1.218)"/><path class="j" d="M32.878,10.854l1.051-5.106L32.346,1,20.266,9.941l4.649,3.922,6.566,1.912,1.447-1.69-.631-.456,1-.913-.767-.592,1-.765Z" transform="translate(-0.929)"/><path class="j" d="M1,5.748l1.063,5.106-.68.506,1.014.765-.767.592,1,.913L2,14.085l1.447,1.69,6.566-1.912,4.649-3.922L2.583,1Z"/><path class="g" d="M31.667,16.427,25.1,14.515,27.079,17.5l-2.955,5.76,3.907-.049h5.836Z" transform="translate(-1.115 -0.652)"/><path class="g" d="M10.027,14.515,3.461,16.427,1.273,23.21H7.1L11,23.259,8.049,17.5Z" transform="translate(-0.013 -0.652)"/><path class="g" d="M19.512,17.361l.42-7.227,1.9-5.143H13.355l1.9,5.143.42,7.227.161,2.269.012,5.612h3.487l.012-5.612Z" transform="translate(-0.596 -0.192)"/></g></svg>